<svg xmlns="http://www.w3.org/2000/svg" viewBox="0 0 40 40">
  <defs>
    <style>.cls-1{fill:#595757;}</style>
  </defs>
  <g id="&#x56FE;&#x5C42;_2">
    <g id="&#x56FE;&#x5C42;_1-2">
      <path class="cls-1" d="M40,11A11,11,0,0,0,29,0H10c-.12,0-.23,0-.34,0A1.51,1.51,0,0,0,8.38.5l-8,9A1.5,1.5,0,0,0,0,10.74,1.15,1.15,0,0,0,0,11V40H30a3.16,3.16,0,0,0,.32,0l.18,0a1.51,1.51,0,0,0,1.12-.5l8-9A1.5,1.5,0,0,0,40,29.26,1.15,1.15,0,0,0,40,29ZM11,3H29a8,8,0,0,1,4,1.08l-6.44,6.44A10.93,10.93,0,0,0,21,9H11ZM8,5.44V9H4.84ZM29,24V37H3V12H21a8,8,0,0,1,8,8Zm3,10.56V31h3.16ZM37,28H32V20a11,11,0,0,0-1.49-5.51l6.06-6.06A8.1,8.1,0,0,1,37,11Z"></path>
    </g>
  </g>
</svg>