<svg xmlns="http://www.w3.org/2000/svg" viewBox="0 0 28.8 27.4">
  <defs>
    <style>.cls-1{fill:#fff;}.cls-2{fill:#292929;}.cls-3{fill:#00559d;}</style>
  </defs>
  <g id="&#x56FE;&#x5C42;_2">
    <g id="&#x56FE;&#x5C42;_1-2">
      <polygon class="cls-1" points="24.56 8.2 12.2 15.2 1.2 7.2 17.2 1.2 24.56 8.2 14.17 14.2 14.17 26.2 24.56 20.2 24.56 8.2"></polygon>
      <path class="cls-2" d="M14.17,26.4a.17.17,0,0,1-.1,0,.19.19,0,0,1-.1-.17V14.43l-1.67.94a.2.2,0,0,1-.22,0l-11-8A.19.19,0,0,1,1,7.17.21.21,0,0,1,1.13,7l16-6a.19.19,0,0,1,.21.05l7.36,7,0,0h0a.19.19,0,0,1,0,.1v12a.19.19,0,0,1-.1.17l-10.39,6A.19.19,0,0,1,14.17,26.4Zm.2-12.08V25.85l10-5.77V8.55ZM1.62,7.26,12.21,15l12-6.8L17.15,1.43Z"></path>
      <polygon class="cls-1" points="3.2 20.2 1.2 7.2 12.2 15.2 14.17 26.2 3.2 20.2"></polygon>
      <path class="cls-2" d="M14.17,26.4l-.1,0-11-6a.23.23,0,0,1-.1-.15l-2-13A.2.2,0,0,1,1.1,7a.2.2,0,0,1,.22,0l11,8a.2.2,0,0,1,.08.13l2,11a.2.2,0,0,1-.08.19A.19.19,0,0,1,14.17,26.4ZM3.38,20.07,13.9,25.82,12,15.31,1.47,7.64Z"></path>
      <polygon class="cls-3" points="12.2 15.2 14.23 26.2 24.63 20.2 24.63 8.2 12.2 15.2"></polygon>
      <path class="cls-2" d="M14.23,26.4l-.08,0a.19.19,0,0,1-.11-.14l-2-11a.21.21,0,0,1,.1-.21L24.53,8a.18.18,0,0,1,.2,0,.19.19,0,0,1,.1.17v12a.18.18,0,0,1-.11.17l-10.39,6A.17.17,0,0,1,14.23,26.4ZM12.42,15.3l2,10.59,10-5.81V8.54Z"></path>
      <circle class="cls-3" cx="1.2" cy="7.2" r="1"></circle>
      <path class="cls-2" d="M1.2,8.4A1.2,1.2,0,1,1,2.4,7.2,1.2,1.2,0,0,1,1.2,8.4Zm0-2a.8.8,0,1,0,.8.8A.8.8,0,0,0,1.2,6.4Z"></path>
      <circle class="cls-3" cx="3.2" cy="20.2" r="1"></circle>
      <path class="cls-2" d="M3.2,21.4a1.2,1.2,0,1,1,1.2-1.2A1.2,1.2,0,0,1,3.2,21.4Zm0-2a.8.8,0,1,0,.8.8A.8.8,0,0,0,3.2,19.4Z"></path>
      <circle class="cls-3" cx="12.2" cy="15.2" r="1"></circle>
      <path class="cls-2" d="M12.2,16.4a1.2,1.2,0,1,1,1.2-1.2A1.2,1.2,0,0,1,12.2,16.4Zm0-2a.8.8,0,1,0,.8.8A.8.8,0,0,0,12.2,14.4Z"></path>
      <circle class="cls-3" cx="14.2" cy="26.2" r="1"></circle>
      <path class="cls-2" d="M14.2,27.4a1.2,1.2,0,1,1,1.2-1.2A1.2,1.2,0,0,1,14.2,27.4Zm0-2a.8.8,0,1,0,.8.8A.8.8,0,0,0,14.2,25.4Z"></path>
      <circle class="cls-3" cx="24.2" cy="8.2" r="1"></circle>
      <path class="cls-2" d="M24.2,9.4a1.2,1.2,0,1,1,1.2-1.2A1.2,1.2,0,0,1,24.2,9.4Zm0-2a.8.8,0,1,0,.8.8A.8.8,0,0,0,24.2,7.4Z"></path>
      <circle class="cls-3" cx="17.2" cy="1.2" r="1"></circle>
      <path class="cls-2" d="M17.2,2.4a1.2,1.2,0,1,1,1.2-1.2A1.2,1.2,0,0,1,17.2,2.4Zm0-2a.8.8,0,1,0,.8.8A.8.8,0,0,0,17.2.4Z"></path>
      <path class="cls-3" d="M28.47,23.24l-3.3-3.3.72-.73a.09.09,0,0,0,0-.16l-3.07-.77a.1.1,0,0,0-.12.12l.77,3.07a.09.09,0,0,0,.16,0l.73-.72,3.3,3.3a.45.45,0,0,0,.63,0l.22-.23A.44.44,0,0,0,28.47,23.24Z"></path>
      <path class="cls-2" d="M27.93,24.42a.7.7,0,0,1-.46-.19l-3.15-3.16-.58.58a.3.3,0,0,1-.51-.14l-.77-3.06a.3.3,0,0,1,.37-.37l3.07.77a.32.32,0,0,1,.21.21.3.3,0,0,1-.07.29l-.59.59,3.16,3.15a.66.66,0,0,1,0,.92l-.22.22A.68.68,0,0,1,27.93,24.42Zm-3.61-3.83a.2.2,0,0,1,.14.06l3.3,3.29a.23.23,0,0,0,.34,0l.23-.22a.25.25,0,0,0,0-.34L25,20.08a.19.19,0,0,1,0-.28l.6-.6-2.74-.69.69,2.74.6-.6A.2.2,0,0,1,24.32,20.59Z"></path>
    </g>
  </g>
</svg>