<svg xmlns="http://www.w3.org/2000/svg" viewBox="0 0 39 40.38">
  <defs>
    <style>.cls-1{fill:#595757;}</style>
  </defs>
  <g id="&#x56FE;&#x5C42;_2">
    <g id="&#x56FE;&#x5C42;_1-2">
      <path class="cls-1" d="M17.62,21.41l4-4a1,1,0,0,0-.42-1.6l-20-5.35A1,1,0,0,0,0,11.1a1,1,0,0,0,0,.49l5.36,20a1,1,0,0,0,1.17.67A1,1,0,0,0,7,32.06l4-4L23.12,40.1a.94.94,0,0,0,1.35,0l5.25-5.25a.93.93,0,0,0,0-1.34Z"></path>
      <path class="cls-1" d="M38,5.46,29,.27A2,2,0,0,0,28,0a2,2,0,0,0-1,.27L18,5.46A2,2,0,0,0,17,7.2v4.19a1,1,0,0,0,1,1h1a1,1,0,0,0,1-1V7.77l8-4.62,8,4.62V17l-8,4.62-3.5-2a1,1,0,0,0-1.5.87v1.15a1,1,0,0,0,.5.87l3.5,2a2,2,0,0,0,1,.26,2,2,0,0,0,1-.26l9-5.2a2,2,0,0,0,1-1.73V7.2A2,2,0,0,0,38,5.46Z"></path>
    </g>
  </g>
</svg>