<svg xmlns="http://www.w3.org/2000/svg" viewBox="0 0 38.4 18.4">
  <defs>
    <style>.cls-1{fill:#292929;}.cls-2{opacity:0.4;}.cls-3{fill:#00559d;}.cls-4{fill:#fff;}</style>
  </defs>
  <g id="&#x56FE;&#x5C42;_2">
    <g id="&#x56FE;&#x5C42;_1-2">
      <path class="cls-1" d="M2.08,18.4h-1a.2.2,0,0,1-.19-.14A.21.21,0,0,1,1,18l.8-.61a.2.2,0,1,1,.24.32L1.68,18h.4a.2.2,0,0,1,0,.4Z"></path>
      <path class="cls-1" d="M3.53,16.54a.21.21,0,0,1-.16-.08.19.19,0,0,1,0-.28l1.65-1.26a.2.2,0,0,1,.24.32L3.65,16.5A.28.28,0,0,1,3.53,16.54ZM6.83,14a.21.21,0,0,1-.16-.08.2.2,0,0,1,0-.28L8.36,12.4a.2.2,0,0,1,.24.32L7,14A.17.17,0,0,1,6.83,14Zm3.3-2.52a.21.21,0,0,1-.16-.08.2.2,0,0,1,0-.28l1.65-1.26a.2.2,0,0,1,.25.32l-1.66,1.26A.17.17,0,0,1,10.13,11.5ZM13.43,9a.18.18,0,0,1-.15-.08.2.2,0,0,1,0-.28L15,7.37a.19.19,0,0,1,.28,0,.2.2,0,0,1,0,.28L13.56,8.94A.21.21,0,0,1,13.43,9Zm3.31-2.52a.21.21,0,0,1-.16-.08.2.2,0,0,1,0-.28l1.14-.87a.19.19,0,0,1,.12,0h.65a.2.2,0,0,1,0,.4h-.58l-1.08.83A.19.19,0,0,1,16.74,6.47ZM35.12,5.6H33.05a.2.2,0,1,1,0-.4h2.07a.2.2,0,0,1,0,.4ZM31,5.6H28.9a.2.2,0,1,1,0-.4H31a.2.2,0,0,1,0,.4Zm-4.15,0H24.75a.2.2,0,1,1,0-.4h2.07a.2.2,0,0,1,0,.4Zm-4.15,0H20.59a.2.2,0,1,1,0-.4h2.08a.2.2,0,0,1,0,.4Z"></path>
      <path class="cls-1" d="M37.44,6.25a.18.18,0,0,1-.15-.07.2.2,0,0,1,0-.28l.35-.3H37.2a.2.2,0,0,1,0-.4h1a.21.21,0,0,1,.19.13.2.2,0,0,1-.06.22l-.76.65A.21.21,0,0,1,37.44,6.25Z"></path>
      <path class="cls-1" d="M23.05,18.4H21a.2.2,0,0,1,0-.4h2.1a.2.2,0,0,1,0,.4Zm-4.2,0H16.76a.2.2,0,0,1,0-.4h2.09a.2.2,0,1,1,0,.4Zm-4.19,0H12.57a.2.2,0,1,1,0-.4h2.09a.2.2,0,0,1,0,.4Zm-4.19,0H8.37a.2.2,0,1,1,0-.4h2.1a.2.2,0,1,1,0,.4Zm-4.19,0H4.18a.2.2,0,1,1,0-.4h2.1a.2.2,0,1,1,0,.4Zm18.39-1.27a.21.21,0,0,1-.15-.08.2.2,0,0,1,0-.28l1.6-1.36a.19.19,0,0,1,.28,0,.2.2,0,0,1,0,.28l-1.6,1.36A.19.19,0,0,1,24.67,17.13Zm3.19-2.72a.23.23,0,0,1-.15-.07.21.21,0,0,1,0-.29l1.59-1.36a.19.19,0,0,1,.28,0,.2.2,0,0,1,0,.28L28,14.36A.19.19,0,0,1,27.86,14.41Zm3.2-2.72a.24.24,0,0,1-.16-.07.21.21,0,0,1,0-.29L32.52,10a.19.19,0,0,1,.28,0,.19.19,0,0,1,0,.28l-1.59,1.36A.24.24,0,0,1,31.06,11.69ZM34.25,9a.21.21,0,0,1-.15-.07.19.19,0,0,1,0-.28l1.59-1.36a.22.22,0,0,1,.29,0,.2.2,0,0,1,0,.28L34.38,8.92A.24.24,0,0,1,34.25,9Z"></path>
      <g class="cls-2">
        <polygon class="cls-3" points="23.18 18.2 1.08 18.2 17.87 5.4 38.2 5.4 23.18 18.2"></polygon>
      </g>
      <polygon class="cls-4" points="22.29 13 0.2 13 16.99 0.2 37.32 0.2 22.29 13"></polygon>
      <path class="cls-1" d="M22.29,13.2H.2A.19.19,0,0,1,0,13.06a.19.19,0,0,1,.07-.22L16.87,0A.19.19,0,0,1,17,0H37.32a.18.18,0,0,1,.18.13.2.2,0,0,1,0,.22l-15,12.8A.19.19,0,0,1,22.29,13.2ZM.79,12.8H22.22L36.77.4H17.06Z"></path>
    </g>
  </g>
</svg>