<svg xmlns="http://www.w3.org/2000/svg" viewBox="0 0 25.4 26.73">
  <defs>
    <style>.cls-1{fill:#fff;}.cls-2{fill:#292929;}.cls-3{fill:#00559d;}.cls-4{fill:#f2f2f2;}.cls-5{opacity:0.4;}</style>
  </defs>
  <g id="&#x56FE;&#x5C42;_2">
    <g id="&#x56FE;&#x5C42;_1-2">
      <polygon class="cls-1" points="25.13 6.53 14.17 12.86 3.2 6.53 14.17 0.2 25.13 6.53 14.17 12.86 14.17 25.52 25.13 19.19 25.13 6.53"></polygon>
      <path class="cls-2" d="M14.17,25.73a.17.17,0,0,1-.1,0,.19.19,0,0,1-.1-.18V13L3.1,6.7a.19.19,0,0,1,0-.34L14.07,0a.18.18,0,0,1,.2,0l11,6.33a.1.1,0,0,1,.06,0h0a.15.15,0,0,1,0,.11V19.19a.22.22,0,0,1-.1.18l-11,6.33A.19.19,0,0,1,14.17,25.73ZM14.37,13v12.2l10.56-6.1V6.88ZM3.6,6.53l10.57,6.1,10.56-6.1L14.17.43Z"></path>
      <polygon class="cls-3" points="3.2 19.19 3.2 6.53 14.17 12.86 14.17 25.52 3.2 19.19"></polygon>
      <path class="cls-2" d="M14.17,25.73a.17.17,0,0,1-.1,0l-11-6.33a.22.22,0,0,1-.1-.18V6.53a.19.19,0,0,1,.1-.17.18.18,0,0,1,.2,0l11,6.33a.19.19,0,0,1,.1.17V25.52a.21.21,0,0,1-.1.18A.19.19,0,0,1,14.17,25.73ZM3.4,19.08,14,25.18V13L3.4,6.88Z"></path>
      <polygon class="cls-4" points="14.23 12.86 14.23 25.52 25.2 19.19 25.2 6.53 14.23 12.86"></polygon>
      <path class="cls-2" d="M14.23,25.73l-.1,0a.21.21,0,0,1-.1-.18V12.86a.19.19,0,0,1,.1-.17l11-6.33a.18.18,0,0,1,.2,0,.19.19,0,0,1,.1.17V19.19a.22.22,0,0,1-.1.18l-11,6.33A.17.17,0,0,1,14.23,25.73ZM14.43,13v12.2L25,19.08V6.88Z"></path>
      <g class="cls-5">
        <polygon class="cls-3" points="0.2 20.19 0.2 7.53 11.17 13.86 11.17 26.52 0.2 20.19"></polygon>
      </g>
      <path class="cls-2" d="M11.17,26.73a.17.17,0,0,1-.1,0,.2.2,0,0,1-.1-.22V24.54a.2.2,0,1,1,.4,0v2a.21.21,0,0,1-.1.18A.19.19,0,0,1,11.17,26.73Zm-1.75-1a.19.19,0,0,1-.1,0l-1.73-1a.2.2,0,0,1-.07-.27.2.2,0,0,1,.27-.08l1.73,1a.21.21,0,0,1,.08.28A.22.22,0,0,1,9.42,25.72ZM6,23.72a.17.17,0,0,1-.1,0l-1.73-1a.2.2,0,0,1-.08-.27.21.21,0,0,1,.28-.08l1.73,1a.2.2,0,0,1-.1.38Zm5.21-1a.2.2,0,0,1-.2-.2v-2a.2.2,0,0,1,.4,0v2A.2.2,0,0,1,11.17,22.74Zm-8.68-1-.1,0-1.73-1a.2.2,0,0,1-.07-.27.2.2,0,0,1,.27-.08l1.73,1a.21.21,0,0,1,.08.28A.22.22,0,0,1,2.49,21.72ZM.2,20.39a.2.2,0,0,1-.2-.2v-2a.2.2,0,0,1,.4,0v2A.2.2,0,0,1,.2,20.39Zm11-1.65a.2.2,0,0,1-.2-.2v-2a.2.2,0,0,1,.4,0v2A.2.2,0,0,1,11.17,18.74ZM.2,16.39a.2.2,0,0,1-.2-.2v-2a.2.2,0,0,1,.4,0v2A.2.2,0,0,1,.2,16.39Zm11-1.65a.2.2,0,0,1-.2-.2V14l-1.05-.61a.2.2,0,1,1,.2-.34l1.15.66a.19.19,0,0,1,.1.17v.68A.2.2,0,0,1,11.17,14.74ZM8.29,12.4a.17.17,0,0,1-.1,0l-1.73-1a.2.2,0,0,1-.08-.27A.19.19,0,0,1,6.65,11l1.74,1a.19.19,0,0,1,.07.27A.21.21,0,0,1,8.29,12.4Zm-8.09,0a.2.2,0,0,1-.2-.2v-2a.2.2,0,0,1,.4,0v2A.2.2,0,0,1,.2,12.39Zm4.62-2a.19.19,0,0,1-.1,0L3,9.37a.19.19,0,0,1-.07-.27A.19.19,0,0,1,3.19,9l1.73,1A.2.2,0,0,1,5,10.3.22.22,0,0,1,4.82,10.4Zm-3.46-2a.17.17,0,0,1-.1,0L.4,7.88v.31a.2.2,0,0,1-.4,0V7.53a.19.19,0,0,1,.1-.17.18.18,0,0,1,.2,0L1.46,8a.19.19,0,0,1,.07.27A.21.21,0,0,1,1.36,8.4Z"></path>
    </g>
  </g>
</svg>