<svg xmlns="http://www.w3.org/2000/svg" viewBox="0 0 27.12 26.11">
  <defs>
    <style>.cls-1{fill:#fff;}.cls-2{fill:#292929;}.cls-3{fill:#f2f2f2;}.cls-4{fill:#00559d;}</style>
  </defs>
  <g id="&#x56FE;&#x5C42;_2">
    <g id="&#x56FE;&#x5C42;_1-2">
      <polygon class="cls-1" points="18.02 0.2 26.92 5.34 18.02 10.48 9.11 5.34 18.02 0.2"></polygon>
      <path class="cls-2" d="M18,10.69a.17.17,0,0,1-.1,0L9,5.52a.22.22,0,0,1-.1-.18A.19.19,0,0,1,9,5.17L17.92,0a.18.18,0,0,1,.2,0L27,5.17a.19.19,0,0,1,.1.17.22.22,0,0,1-.1.18l-8.9,5.14ZM9.51,5.34,18,10.25l8.5-4.91L18,.43Z"></path>
      <polygon class="cls-3" points="26.92 15.63 26.92 5.34 18.02 10.48 18.02 20.77 26.92 15.63"></polygon>
      <path class="cls-2" d="M18,21a.17.17,0,0,1-.1,0,.18.18,0,0,1-.1-.17V10.49a.19.19,0,0,1,.1-.18l8.9-5.14a.18.18,0,0,1,.2,0,.19.19,0,0,1,.1.17V15.63a.19.19,0,0,1-.1.17l-8.9,5.14Zm.2-10.37v9.82l8.5-4.91V5.69Z"></path>
      <polygon class="cls-1" points="6.56 7.06 13.56 3.06 23.56 7.06 9.56 15.06 6.56 7.06"></polygon>
      <polygon class="cls-1" points="9.11 5.34 18.02 10.48 9.11 15.63 0.2 10.48 9.11 5.34"></polygon>
      <polygon class="cls-3" points="18.02 20.77 18.02 10.48 9.11 15.63 9.11 25.91 18.02 20.77"></polygon>
      <polygon class="cls-1" points="0.2 20.77 0.2 10.48 9.11 15.63 9.11 25.91 0.2 20.77"></polygon>
      <path class="cls-2" d="M9.11,15.83a.17.17,0,0,1-.1,0L.1,10.66a.21.21,0,0,1-.1-.17.21.21,0,0,1,.1-.18L9,5.17a.21.21,0,0,1,.27.07.21.21,0,0,1-.07.28l-8.61,5L9.11,15.4l8.81-5.09a.2.2,0,0,1,.27.08.21.21,0,0,1-.07.27L9.21,15.8A.19.19,0,0,1,9.11,15.83Z"></path>
      <path class="cls-2" d="M9.11,26.11l-.1,0a.22.22,0,0,1-.1-.18V15.63a.22.22,0,0,1,.1-.18l8.91-5.14a.2.2,0,0,1,.27.08.21.21,0,0,1-.07.27L9.31,15.74v9.83l8.61-5a.2.2,0,0,1,.27.07.2.2,0,0,1-.07.27L9.21,26.09Z"></path>
      <path class="cls-2" d="M9.11,26.11l-.1,0L.1,20.94a.19.19,0,0,1-.1-.17V10.49a.21.21,0,0,1,.1-.18.23.23,0,0,1,.2,0l8.91,5.14a.22.22,0,0,1,.1.18V25.91a.22.22,0,0,1-.1.18ZM.4,20.66l8.51,4.91V15.74L.4,10.83Z"></path>
      <path class="cls-4" d="M9.72,5.9a.17.17,0,0,1-.1,0L9,5.51a.2.2,0,0,1,.2-.35l.65.36a.2.2,0,0,1,.08.28A.19.19,0,0,1,9.72,5.9Z"></path>
      <path class="cls-4" d="M15.07,8.87l-.1,0L13.63,8.1a.19.19,0,0,1-.07-.27.2.2,0,0,1,.27-.08l1.34.75a.2.2,0,0,1-.1.37ZM12.39,7.39l-.09,0L11,6.62a.21.21,0,0,1-.08-.28.2.2,0,0,1,.27-.07L12.49,7a.2.2,0,0,1,.08.27A.21.21,0,0,1,12.39,7.39Z"></path>
      <path class="cls-4" d="M17.06,10,17,10l-.65-.36a.2.2,0,1,1,.19-.35l.66.36a.2.2,0,0,1-.1.38Z"></path>
      <polygon class="cls-3" points="20.56 19.06 13.56 23.06 10.56 15.06 22.56 8.06 20.56 19.06"></polygon>
      <path class="cls-4" d="M18.06,11.41a.2.2,0,0,1-.2-.2v-.9a.2.2,0,0,1,.4,0v.9A.2.2,0,0,1,18.06,11.41Z"></path>
      <path class="cls-4" d="M18.06,18.37a.2.2,0,0,1-.2-.2V16.43a.2.2,0,0,1,.4,0v1.74A.2.2,0,0,1,18.06,18.37Zm0-3.48a.2.2,0,0,1-.2-.2V13a.2.2,0,0,1,.4,0v1.74A.2.2,0,0,1,18.06,14.89Z"></path>
      <path class="cls-4" d="M18.06,21a.2.2,0,0,1-.2-.2v-.9a.2.2,0,0,1,.4,0v.9A.2.2,0,0,1,18.06,21Z"></path>
    </g>
  </g>
</svg>