<svg xmlns="http://www.w3.org/2000/svg" viewBox="0 0 29.35 40">
  <defs>
    <style>.cls-1{fill:#fff;}.cls-2{fill:#00559d;}.cls-3{fill:#292929;}.cls-4{opacity:0.4;}</style>
  </defs>
  <g id="&#x56FE;&#x5C42;_2">
    <g id="&#x56FE;&#x5C42;_1-2">
      <polygon class="cls-1" points="12 20.14 12 9.96 20.58 15.05 20.58 25.23 12 20.14"></polygon>
      <line class="cls-2" x1="20.58" y1="15.05" x2="20.58" y2="24.95"></line>
      <path class="cls-3" d="M20.58,25.14a.18.18,0,0,1-.19-.19v-9.9a.19.19,0,1,1,.38,0V25A.18.18,0,0,1,20.58,25.14Z"></path>
      <line class="cls-2" x1="12" y1="20" x2="12" y2="10.1"></line>
      <path class="cls-3" d="M12,20.19a.19.19,0,0,1-.19-.19V10.1a.2.2,0,1,1,.39,0V20A.19.19,0,0,1,12,20.19Z"></path>
      <polygon class="cls-1" points="20.58 5.14 29.16 10.1 20.58 15.05 12 10.1 20.58 5.14"></polygon>
      <path class="cls-3" d="M20.58,15.24a.19.19,0,0,1-.1,0l-8.57-5a.18.18,0,0,1-.1-.16.19.19,0,0,1,.1-.17L20.48,5a.18.18,0,0,1,.2,0l8.57,4.95a.19.19,0,0,1,.1.17.18.18,0,0,1-.1.16l-8.57,5A.19.19,0,0,1,20.58,15.24ZM12.39,10.1l8.19,4.73,8.19-4.73L20.58,5.37Z"></path>
      <polygon class="cls-2" points="20.58 24.95 12 29.9 3.43 24.95 12 20 20.58 24.95 12 29.9 12 39.81 20.58 34.85 20.58 24.95"></polygon>
      <path class="cls-3" d="M12,40a.16.16,0,0,1-.09,0,.18.18,0,0,1-.1-.16V30L3.33,25.12a.19.19,0,0,1,0-.34l8.58-5a.21.21,0,0,1,.19,0l8.58,5s.05,0,.06.07h0v0h0v9.91a.18.18,0,0,1-.09.16L12.1,40A.17.17,0,0,1,12,40Zm.2-10v9.46l8.19-4.73V25.28ZM3.81,25,12,29.68,20.2,25,12,20.22Z"></path>
      <polygon class="cls-1" points="3.43 34.85 3.43 24.95 12 29.9 12 39.81 3.43 34.85"></polygon>
      <path class="cls-3" d="M12,40a.16.16,0,0,1-.09,0L3.33,35a.19.19,0,0,1-.1-.16V25a.21.21,0,0,1,.1-.17.21.21,0,0,1,.19,0l8.58,5a.18.18,0,0,1,.1.16v9.91a.18.18,0,0,1-.1.16A.17.17,0,0,1,12,40ZM3.62,34.74l8.19,4.73V30L3.62,25.28Z"></path>
      <polygon class="cls-1" points="12.06 29.9 12.06 39.81 20.63 34.85 20.63 24.95 12.06 29.9"></polygon>
      <path class="cls-3" d="M12.06,40a.17.17,0,0,1-.1,0,.18.18,0,0,1-.1-.16V29.9a.18.18,0,0,1,.1-.16l8.58-5a.21.21,0,0,1,.19,0,.21.21,0,0,1,.1.17v9.91a.19.19,0,0,1-.1.16L12.15,40A.16.16,0,0,1,12.06,40Zm.19-10v9.46l8.19-4.73V25.28Z"></path>
      <polygon class="cls-1" points="20.58 15.12 20.58 25.02 29.16 20.07 29.16 10.16 20.58 15.12"></polygon>
      <path class="cls-3" d="M20.58,25.21l-.1,0a.2.2,0,0,1-.09-.17v-9.9a.19.19,0,0,1,.09-.17L29.06,10a.17.17,0,0,1,.19,0,.19.19,0,0,1,.1.17v9.9a.21.21,0,0,1-.1.17l-8.57,5Zm.19-10v9.46L29,20V10.5Z"></path>
      <path class="cls-2" d="M1.12,17.07,0,18.92a.1.1,0,0,0,.09.15H2.31a.1.1,0,0,0,.09-.15L1.29,17.07A.1.1,0,0,0,1.12,17.07Z"></path>
      <rect class="cls-2" x="0.78" y="18.11" width="0.86" height="4.6" rx="0.43"></rect>
      <path class="cls-3" d="M12,30.37a.19.19,0,0,1-.19-.19V28.25a.19.19,0,1,1,.38,0v1.93A.19.19,0,0,1,12,30.37Zm0-3.85a.19.19,0,0,1-.19-.19V24.4a.19.19,0,1,1,.38,0v1.93A.19.19,0,0,1,12,26.52Zm0-3.85a.19.19,0,0,1-.19-.19V20.55a.19.19,0,0,1,.38,0v1.93A.19.19,0,0,1,12,22.67Z"></path>
      <path class="cls-3" d="M3.45,24.59a.19.19,0,0,1-.19-.19V22.48a.2.2,0,1,1,.39,0V24.4A.19.19,0,0,1,3.45,24.59Zm0-3.85a.19.19,0,0,1-.19-.19V18.62a.2.2,0,0,1,.19-.19.2.2,0,0,1,.2.19v1.93A.19.19,0,0,1,3.45,20.74Zm0-3.85a.2.2,0,0,1-.19-.19V14.77a.2.2,0,0,1,.19-.19.2.2,0,0,1,.2.19V16.7A.2.2,0,0,1,3.45,16.89Z"></path>
      <g class="cls-4">
        <polyline class="cls-2" points="12.03 10.23 3.45 5.28 12.03 0.33 20.61 5.28"></polyline>
        <polygon class="cls-2" points="20.61 15.19 20.61 5.28 12.03 10.23 12.03 20.14 20.61 15.19"></polygon>
        <polygon class="cls-2" points="3.45 15.19 3.45 5.28 12.03 10.23 12.03 20.14 3.45 15.19"></polygon>
      </g>
      <path class="cls-3" d="M20.58,6.3a.19.19,0,0,1-.19-.19V5.48l-.55.31a.18.18,0,0,1-.26-.07.19.19,0,0,1,.07-.26L20.48,5a.19.19,0,0,1,.29.16v1A.19.19,0,0,1,20.58,6.3Z"></path>
      <path class="cls-3" d="M14.22,9a.19.19,0,0,1-.17-.1.19.19,0,0,1,.07-.26l1.39-.8a.2.2,0,0,1,.26.07.21.21,0,0,1-.07.27L14.31,9ZM17,7.41a.18.18,0,0,1-.16-.09.19.19,0,0,1,.07-.27l1.38-.79a.18.18,0,0,1,.26.07.19.19,0,0,1-.07.26l-1.38.8A.16.16,0,0,1,17,7.41Z"></path>
      <path class="cls-3" d="M12,10.29l-.09,0-.84-.48A.19.19,0,0,1,11,9.52a.21.21,0,0,1,.27-.07l.73.42.74-.42a.19.19,0,0,1,.26.07.18.18,0,0,1-.07.26l-.83.48A.17.17,0,0,1,12,10.29Z"></path>
      <path class="cls-3" d="M9.79,9a.19.19,0,0,1-.1,0L8.31,8.19a.21.21,0,0,1-.07-.27.19.19,0,0,1,.26-.07l1.38.8a.18.18,0,0,1,.07.26A.17.17,0,0,1,9.79,9ZM7,7.41a.15.15,0,0,1-.09,0l-1.38-.8a.18.18,0,0,1-.07-.26.18.18,0,0,1,.26-.07l1.38.79a.21.21,0,0,1,.07.27A.19.19,0,0,1,7,7.41Z"></path>
      <path class="cls-3" d="M4.26,5.82a.19.19,0,0,1-.1,0l-.83-.48a.19.19,0,0,1-.1-.17A.19.19,0,0,1,3.33,5l.83-.48a.2.2,0,0,1,.27.07.19.19,0,0,1-.07.26l-.55.31.55.32a.19.19,0,0,1,.07.26A.21.21,0,0,1,4.26,5.82Z"></path>
      <path class="cls-3" d="M5.64,4.06A.19.19,0,0,1,5.48,4a.18.18,0,0,1,.07-.26l1.38-.8a.19.19,0,1,1,.19.33L5.74,4A.17.17,0,0,1,5.64,4.06Zm2.77-1.6a.2.2,0,0,1-.17-.09.21.21,0,0,1,.07-.27l1.38-.79a.18.18,0,0,1,.26.07.18.18,0,0,1-.07.26l-1.38.8Z"></path>
      <path class="cls-3" d="M12.84.87a.17.17,0,0,1-.1,0L12,.41l-.73.43A.21.21,0,0,1,11,.77a.19.19,0,0,1,.07-.26L11.91,0a.17.17,0,0,1,.19,0l.83.48A.18.18,0,0,1,13,.77.19.19,0,0,1,12.84.87Z"></path>
      <path class="cls-3" d="M18.36,4.06l-.09,0-1.38-.8A.18.18,0,0,1,16.82,3a.19.19,0,0,1,.26-.07l1.38.8a.19.19,0,0,1-.1.36ZM15.6,2.46l-.09,0-1.39-.8a.19.19,0,0,1-.07-.26.2.2,0,0,1,.27-.08l1.38.8a.21.21,0,0,1,.07.27A.2.2,0,0,1,15.6,2.46Z"></path>
      <path class="cls-3" d="M19.75,5.82a.21.21,0,0,1-.17-.1.19.19,0,0,1,.07-.26l.55-.32-.55-.31a.19.19,0,0,1-.07-.26.18.18,0,0,1,.26-.07l.84.48a.18.18,0,0,1,.09.16.19.19,0,0,1-.09.17l-.84.48A.16.16,0,0,1,19.75,5.82Z"></path>
      <path class="cls-3" d="M14.22,9a.19.19,0,0,1-.17-.1.19.19,0,0,1,.07-.26l1.39-.8a.2.2,0,0,1,.26.07.21.21,0,0,1-.07.27L14.31,9ZM17,7.41a.18.18,0,0,1-.16-.09.19.19,0,0,1,.07-.27l1.38-.79a.18.18,0,0,1,.26.07.19.19,0,0,1-.07.26l-1.38.8A.16.16,0,0,1,17,7.41Z"></path>
      <path class="cls-3" d="M12,11.25a.19.19,0,0,1-.19-.19v-1a.19.19,0,0,1,.1-.17l.83-.48a.19.19,0,0,1,.26.07.18.18,0,0,1-.07.26l-.73.43v.85A.19.19,0,0,1,12,11.25Z"></path>
      <path class="cls-3" d="M12,17.63a.19.19,0,0,1-.19-.19V15.85a.2.2,0,1,1,.39,0v1.59A.19.19,0,0,1,12,17.63Zm0-3.19a.19.19,0,0,1-.19-.19v-1.6a.2.2,0,0,1,.19-.19.2.2,0,0,1,.2.19v1.6A.19.19,0,0,1,12,14.44Z"></path>
      <path class="cls-3" d="M12,20.19l-.09,0a.21.21,0,0,1-.1-.17V19a.2.2,0,1,1,.39,0v.63l.54-.32a.19.19,0,0,1,.26.07.19.19,0,0,1-.07.27l-.83.48Z"></path>
      <path class="cls-3" d="M14.22,18.91a.2.2,0,0,1-.17-.09.21.21,0,0,1,.07-.27l1.39-.79a.18.18,0,0,1,.26.07.19.19,0,0,1-.07.26l-1.38.8A.18.18,0,0,1,14.22,18.91ZM17,17.32a.19.19,0,0,1-.16-.1.18.18,0,0,1,.07-.26l1.38-.8a.19.19,0,0,1,.26.07.18.18,0,0,1-.07.26l-1.38.8A.17.17,0,0,1,17,17.32Z"></path>
      <path class="cls-3" d="M19.75,15.72a.2.2,0,0,1-.17-.09.21.21,0,0,1,.07-.27l.74-.42v-.85a.19.19,0,1,1,.38,0v1a.17.17,0,0,1-.09.16l-.84.49Z"></path>
      <path class="cls-3" d="M20.58,12.68a.18.18,0,0,1-.19-.19v-1.6a.19.19,0,1,1,.38,0v1.6A.18.18,0,0,1,20.58,12.68Zm0-3.19a.19.19,0,0,1-.19-.19V7.7a.19.19,0,0,1,.38,0V9.3A.19.19,0,0,1,20.58,9.49Z"></path>
      <path class="cls-3" d="M4.26,15.72l-.1,0-.83-.49a.18.18,0,0,1-.1-.16v-1a.2.2,0,1,1,.39,0v.85l.74.42a.21.21,0,0,1,.07.27A.2.2,0,0,1,4.26,15.72Z"></path>
      <path class="cls-3" d="M3.43,12.68a.19.19,0,0,1-.2-.19v-1.6a.2.2,0,0,1,.2-.19.2.2,0,0,1,.19.19v1.6A.19.19,0,0,1,3.43,12.68Zm0-3.19a.2.2,0,0,1-.2-.19V7.7a.2.2,0,0,1,.2-.19.2.2,0,0,1,.19.19V9.3A.2.2,0,0,1,3.43,9.49Z"></path>
      <path class="cls-3" d="M3.43,6.3a.2.2,0,0,1-.2-.19v-1A.19.19,0,0,1,3.33,5a.17.17,0,0,1,.19,0l.84.48a.19.19,0,0,1,.07.26.2.2,0,0,1-.27.07l-.54-.31v.63A.2.2,0,0,1,3.43,6.3Z"></path>
      <path class="cls-3" d="M9.79,9a.19.19,0,0,1-.1,0L8.31,8.19a.21.21,0,0,1-.07-.27.19.19,0,0,1,.26-.07l1.38.8a.18.18,0,0,1,.07.26A.19.19,0,0,1,9.79,9ZM7,7.41a.15.15,0,0,1-.09,0l-1.38-.8a.18.18,0,0,1-.07-.26.18.18,0,0,1,.26-.07l1.38.79a.21.21,0,0,1,.07.27A.19.19,0,0,1,7,7.41Z"></path>
      <path class="cls-3" d="M12,11.25a.19.19,0,0,1-.19-.19v-.85l-.74-.43A.19.19,0,0,1,11,9.52a.21.21,0,0,1,.27-.07l.83.48a.19.19,0,0,1,.1.17v1A.19.19,0,0,1,12,11.25Z"></path>
      <path class="cls-3" d="M12,17.63a.19.19,0,0,1-.19-.19V15.85a.2.2,0,1,1,.39,0v1.59A.19.19,0,0,1,12,17.63Zm0-3.19a.19.19,0,0,1-.19-.19v-1.6a.2.2,0,0,1,.19-.19.2.2,0,0,1,.2.19v1.6A.19.19,0,0,1,12,14.44Z"></path>
      <path class="cls-3" d="M12,20.19l-.09,0-.84-.48a.21.21,0,0,1-.07-.27.21.21,0,0,1,.27-.07l.54.32V19a.2.2,0,1,1,.39,0v1a.21.21,0,0,1-.1.17Z"></path>
      <path class="cls-3" d="M9.79,18.91a.18.18,0,0,1-.1,0l-1.38-.8a.19.19,0,0,1-.07-.26.18.18,0,0,1,.26-.07l1.38.79a.19.19,0,0,1,.07.27A.18.18,0,0,1,9.79,18.91ZM7,17.32a.16.16,0,0,1-.09,0l-1.38-.8a.18.18,0,0,1-.07-.26.19.19,0,0,1,.26-.07l1.38.8a.19.19,0,0,1-.1.36Z"></path>
      <path class="cls-3" d="M12.06,11.25a.19.19,0,0,1-.2-.19v-1a.19.19,0,0,1,.1-.17l.84-.48a.2.2,0,0,1,.26.07.19.19,0,0,1-.07.26l-.74.43v.85A.19.19,0,0,1,12.06,11.25Z"></path>
      <path class="cls-3" d="M12.06,17.63a.19.19,0,0,1-.2-.19V15.85a.2.2,0,1,1,.39,0v1.59A.19.19,0,0,1,12.06,17.63Zm0-3.19a.19.19,0,0,1-.2-.19v-1.6a.2.2,0,0,1,.2-.19.2.2,0,0,1,.19.19v1.6A.19.19,0,0,1,12.06,14.44Z"></path>
      <path class="cls-3" d="M12.06,20.19l-.1,0a.21.21,0,0,1-.1-.17V19a.2.2,0,1,1,.39,0v.63l.55-.32a.2.2,0,0,1,.26.07.21.21,0,0,1-.07.27l-.84.48Z"></path>
      <path class="cls-3" d="M14.27,18.91a.18.18,0,0,1-.16-.09.19.19,0,0,1,.07-.27l1.38-.79a.18.18,0,0,1,.26.07.19.19,0,0,1-.07.26l-1.38.8A.16.16,0,0,1,14.27,18.91ZM17,17.32a.21.21,0,0,1-.17-.1.19.19,0,0,1,.07-.26l1.38-.8a.19.19,0,0,1,.26.07.18.18,0,0,1-.07.26l-1.38.8A.16.16,0,0,1,17,17.32Z"></path>
      <path class="cls-3" d="M19.8,15.72a.2.2,0,0,1-.17-.09.21.21,0,0,1,.07-.27l.74-.42v-.85a.2.2,0,1,1,.39,0v1a.18.18,0,0,1-.1.16l-.83.49Z"></path>
      <path class="cls-3" d="M20.63,12.68a.19.19,0,0,1-.19-.19v-1.6a.2.2,0,0,1,.19-.19.2.2,0,0,1,.2.19v1.6A.19.19,0,0,1,20.63,12.68Zm0-3.19a.2.2,0,0,1-.19-.19V7.7a.2.2,0,0,1,.19-.19.2.2,0,0,1,.2.19V9.3A.2.2,0,0,1,20.63,9.49Z"></path>
      <path class="cls-3" d="M20.63,6.3a.2.2,0,0,1-.19-.19V5.48l-.54.31a.2.2,0,0,1-.27-.07.19.19,0,0,1,.07-.26L20.54,5a.17.17,0,0,1,.19,0,.19.19,0,0,1,.1.16v1A.2.2,0,0,1,20.63,6.3Z"></path>
      <path class="cls-3" d="M14.27,9a.19.19,0,0,1-.16-.1.18.18,0,0,1,.07-.26l1.38-.8a.19.19,0,0,1,.26.07.21.21,0,0,1-.07.27L14.37,9A.17.17,0,0,1,14.27,9ZM17,7.41a.2.2,0,0,1-.17-.09.21.21,0,0,1,.07-.27l1.38-.79a.18.18,0,0,1,.26.07.18.18,0,0,1-.07.26l-1.38.8A.15.15,0,0,1,17,7.41Z"></path>
    </g>
  </g>
</svg>