<svg xmlns="http://www.w3.org/2000/svg" viewBox="0 0 29.35 40">
  <defs>
    <style>.cls-1{fill:#fff;}.cls-2{fill:#292929;}.cls-3{fill:#00559d;}.cls-4{opacity:0.4;}</style>
  </defs>
  <g id="&#x56FE;&#x5C42;_2">
    <g id="&#x56FE;&#x5C42;_1-2">
      <polygon class="cls-1" points="12 20.14 12 9.96 20.58 15.05 20.58 25.23 12 20.14"></polygon>
      <polygon class="cls-1" points="20.58 15.12 20.58 25.02 29.16 20.07 29.16 10.16 20.58 15.12"></polygon>
      <path class="cls-2" d="M20.58,25.21l-.1,0a.2.2,0,0,1-.09-.17v-9.9a.19.19,0,0,1,.09-.17L29.06,10a.17.17,0,0,1,.19,0,.19.19,0,0,1,.1.17v9.9a.21.21,0,0,1-.1.17l-8.57,5Zm.19-10v9.46L29,20V10.5Z"></path>
      <line class="cls-3" x1="20.58" y1="15.05" x2="20.58" y2="24.95"></line>
      <path class="cls-2" d="M20.58,25.14a.18.18,0,0,1-.19-.19v-9.9a.19.19,0,1,1,.38,0V25A.18.18,0,0,1,20.58,25.14Z"></path>
      <polygon class="cls-3" points="20.58 24.95 12 29.9 3.43 24.95 12 20 20.58 24.95 12 29.9 12 39.81 20.58 34.85 20.58 24.95"></polygon>
      <path class="cls-2" d="M12,40a.16.16,0,0,1-.09,0,.18.18,0,0,1-.1-.16V30L3.33,25.12a.19.19,0,0,1,0-.34l8.58-5a.21.21,0,0,1,.19,0l8.58,5s.05,0,.06.07h0v0h0v9.91a.18.18,0,0,1-.09.16L12.1,40A.17.17,0,0,1,12,40Zm.2-10v9.46l8.19-4.73V25.28ZM3.81,25,12,29.68,20.2,25,12,20.22Z"></path>
      <polygon class="cls-1" points="3.43 34.85 3.43 24.95 12 29.9 12 39.81 3.43 34.85"></polygon>
      <path class="cls-2" d="M12,40a.16.16,0,0,1-.09,0L3.33,35a.19.19,0,0,1-.1-.16V25a.21.21,0,0,1,.1-.17.21.21,0,0,1,.19,0l8.58,5a.18.18,0,0,1,.1.16v9.91a.18.18,0,0,1-.1.16A.17.17,0,0,1,12,40ZM3.62,34.74l8.19,4.73V30L3.62,25.28Z"></path>
      <polygon class="cls-1" points="12.06 29.9 12.06 39.81 20.63 34.85 20.63 24.95 12.06 29.9"></polygon>
      <path class="cls-2" d="M12.06,40a.17.17,0,0,1-.1,0,.18.18,0,0,1-.1-.16V29.9a.18.18,0,0,1,.1-.16l8.58-5a.21.21,0,0,1,.19,0,.21.21,0,0,1,.1.17v9.91a.19.19,0,0,1-.1.16L12.15,40A.16.16,0,0,1,12.06,40Zm.19-10v9.46l8.19-4.73V25.28Z"></path>
      <polygon class="cls-1" points="20.58 5.14 29.16 10.1 20.58 15.05 12 10.1 20.58 5.14"></polygon>
      <path class="cls-2" d="M20.58,15.24a.19.19,0,0,1-.1,0l-8.57-5a.18.18,0,0,1-.1-.16.19.19,0,0,1,.1-.17L20.48,5a.18.18,0,0,1,.2,0l8.57,4.95a.19.19,0,0,1,.1.17.18.18,0,0,1-.1.16l-8.57,5A.19.19,0,0,1,20.58,15.24ZM12.39,10.1l8.19,4.73,8.19-4.73L20.58,5.37Z"></path>
      <g class="cls-4">
        <polyline class="cls-3" points="12.03 19.86 3.45 14.91 12.03 9.96 20.61 14.91"></polyline>
        <polygon class="cls-3" points="20.61 24.81 20.61 14.91 12.03 19.86 12.03 29.77 20.61 24.81"></polygon>
        <polygon class="cls-3" points="3.45 24.81 3.45 14.91 12.03 19.86 12.03 29.77 3.45 24.81"></polygon>
      </g>
      <path class="cls-3" d="M1.29,22.65,2.4,20.81a.1.1,0,0,0-.09-.15H.1a.1.1,0,0,0-.09.15l1.11,1.84A.1.1,0,0,0,1.29,22.65Z"></path>
      <rect class="cls-3" x="0.78" y="17.02" width="0.86" height="4.6" rx="0.43" transform="translate(2.41 38.64) rotate(-180)"></rect>
      <line class="cls-3" x1="12" y1="20" x2="12" y2="10.1"></line>
      <path class="cls-2" d="M12,20.19a.19.19,0,0,1-.19-.19V10.1a.2.2,0,1,1,.39,0V20A.19.19,0,0,1,12,20.19Z"></path>
      <polygon class="cls-3" points="20.58 5.14 12 10.1 3.43 5.14 12 0.19 20.58 5.14 12 10.1 12 20 20.58 15.05 20.58 5.14"></polygon>
      <path class="cls-2" d="M12,20.19l-.09,0a.21.21,0,0,1-.1-.17V10.21L3.33,5.31a.19.19,0,0,1-.1-.17A.19.19,0,0,1,3.33,5L11.91,0a.17.17,0,0,1,.19,0l8.58,5a.18.18,0,0,1,.09.16v9.91a.17.17,0,0,1-.09.16l-8.58,5Zm.2-10v9.46l8.19-4.73V5.48ZM3.81,5.14,12,9.87l8.2-4.73L12,.41Z"></path>
      <polygon class="cls-1" points="3.43 15.05 3.43 5.14 12 10.1 12 20 3.43 15.05"></polygon>
      <path class="cls-2" d="M12,20.19l-.09,0-8.58-5a.18.18,0,0,1-.1-.16V5.14A.19.19,0,0,1,3.33,5a.17.17,0,0,1,.19,0L12.1,9.93a.19.19,0,0,1,.1.17V20a.21.21,0,0,1-.1.17ZM3.62,14.94l8.19,4.73V10.21L3.62,5.48Z"></path>
      <polygon class="cls-1" points="12.06 10.1 12.06 20 20.63 15.05 20.63 5.14 12.06 10.1"></polygon>
      <path class="cls-2" d="M12.06,20.19l-.1,0a.21.21,0,0,1-.1-.17V10.1a.19.19,0,0,1,.1-.17L20.54,5a.17.17,0,0,1,.19,0,.19.19,0,0,1,.1.16v9.91a.18.18,0,0,1-.1.16l-8.58,5Zm.19-10v9.46l8.19-4.73V5.48Z"></path>
      <path class="cls-2" d="M12,30.37a.19.19,0,0,1-.19-.19V28.25a.19.19,0,1,1,.38,0v1.93A.19.19,0,0,1,12,30.37Zm0-3.85a.19.19,0,0,1-.19-.19V24.4a.19.19,0,1,1,.38,0v1.93A.19.19,0,0,1,12,26.52Zm0-3.85a.19.19,0,0,1-.19-.19V20.55a.19.19,0,0,1,.38,0v1.93A.19.19,0,0,1,12,22.67Z"></path>
      <path class="cls-2" d="M3.43,24.59a.19.19,0,0,1-.2-.19V22.48a.2.2,0,1,1,.39,0V24.4A.19.19,0,0,1,3.43,24.59Zm0-3.85a.19.19,0,0,1-.2-.19V18.62a.2.2,0,0,1,.2-.19.2.2,0,0,1,.19.19v1.93A.19.19,0,0,1,3.43,20.74Zm0-3.85a.2.2,0,0,1-.2-.19V14.77a.2.2,0,0,1,.2-.19.2.2,0,0,1,.19.19V16.7A.2.2,0,0,1,3.43,16.89Z"></path>
    </g>
  </g>
</svg>