<svg xmlns="http://www.w3.org/2000/svg" viewBox="0 0 29.4 18.4">
  <defs>
    <style>.cls-1{fill:#fff;}.cls-2{fill:#292929;}.cls-3{fill:#00559d;}</style>
  </defs>
  <g id="&#x56FE;&#x5C42;_2">
    <g id="&#x56FE;&#x5C42;_1-2">
      <path class="cls-1" d="M14.7.2c-8,0-14.5,4-14.5,9s6.49,9,14.5,9,14.5-4,14.5-9S22.71.2,14.7.2Zm0,10c-3.31,0-6-1.34-6-3s2.69-3,6-3,6,1.34,6,3S18,10.2,14.7,10.2Z"></path>
      <path class="cls-2" d="M14.7,18.4C6.59,18.4,0,14.27,0,9.2S6.59,0,14.7,0,29.4,4.13,29.4,9.2,22.81,18.4,14.7,18.4Zm0-18C6.82.4.4,4.35.4,9.2S6.82,18,14.7,18,29,14.05,29,9.2,22.58.4,14.7.4Zm0,10C11.22,10.4,8.5,9,8.5,7.2S11.22,4,14.7,4s6.2,1.41,6.2,3.2S18.18,10.4,14.7,10.4Zm0-6c-3.14,0-5.8,1.28-5.8,2.8S11.56,10,14.7,10s5.8-1.28,5.8-2.8S17.84,4.4,14.7,4.4Z"></path>
      <path class="cls-3" d="M14.7,16.2C7.77,16.2,2,13.06.23,8.81c0,.13,0,.26,0,.39,0,5,6.49,9,14.5,9s14.5-4,14.5-9c0-.13,0-.26,0-.39C27.45,13.06,21.63,16.2,14.7,16.2Z"></path>
      <path class="cls-2" d="M14.7,18.4C6.59,18.4,0,14.27,0,9.2a2.45,2.45,0,0,1,0-.27V8.79A.2.2,0,0,1,.2,8.61a.19.19,0,0,1,.22.12C2.15,13,8,16,14.7,16S27.25,13,29,8.73a.19.19,0,0,1,.22-.12.2.2,0,0,1,.17.18v.14a2.45,2.45,0,0,1,0,.27C29.4,14.27,22.81,18.4,14.7,18.4ZM.42,9.67C.82,14.31,7.07,18,14.7,18S28.58,14.31,29,9.67c-2.15,4-7.86,6.73-14.28,6.73S2.58,13.67.42,9.67Z"></path>
      <path class="cls-2" d="M.7,9.4a.2.2,0,0,1-.14-.06.19.19,0,0,1,0-.28C3.92,5.7,6.79,5,8.84,7.06a.2.2,0,0,1-.28.28C6.2,5,3.06,7.13.84,9.34A.2.2,0,0,1,.7,9.4Z"></path>
      <path class="cls-2" d="M28.7,9.4a.2.2,0,0,1-.14-.06c-2.22-2.21-5.36-4.36-7.72-2a.2.2,0,0,1-.28-.28c2.05-2.06,4.92-1.36,8.28,2a.19.19,0,0,1,0,.28A.2.2,0,0,1,28.7,9.4Z"></path>
    </g>
  </g>
</svg>