<svg xmlns="http://www.w3.org/2000/svg" viewBox="0 0 29.34 25.2">
  <defs>
    <style>.cls-1{fill:#fff;}.cls-2{fill:#292929;}.cls-3{fill:#00559d;}</style>
  </defs>
  <g id="&#x56FE;&#x5C42;_2">
    <g id="&#x56FE;&#x5C42;_1-2">
      <polygon class="cls-1" points="0.2 25 19.71 21.39 7.38 7.08 0.2 25"></polygon>
      <path class="cls-2" d="M.2,25.2a.17.17,0,0,1-.15-.07.21.21,0,0,1,0-.2L7.2,7A.2.2,0,0,1,7.53,7L19.86,21.26a.21.21,0,0,1,0,.2.2.2,0,0,1-.15.13L.24,25.2ZM7.45,7.46.52,24.74l18.81-3.48Z"></path>
      <ellipse class="cls-3" cx="15.07" cy="12.92" rx="6.05" ry="10" transform="translate(-4.78 12.97) rotate(-40.74)"></ellipse>
      <path class="cls-2" d="M18.76,21.67a7.73,7.73,0,0,1-2.37-.41A14.07,14.07,0,0,1,10.34,17,14,14,0,0,1,7,10.39c-.38-2.25.12-4.09,1.4-5.2s3.17-1.31,5.34-.61a14.08,14.08,0,0,1,6,4.27,14.14,14.14,0,0,1,3.32,6.61c.37,2.24-.12,4.09-1.4,5.19A4.41,4.41,0,0,1,18.76,21.67ZM11.39,4.58a4.06,4.06,0,0,0-2.71.92c-1.17,1-1.62,2.72-1.26,4.82a13.66,13.66,0,0,0,3.22,6.42,13.61,13.61,0,0,0,5.87,4.14c2,.66,3.79.47,5-.53s1.62-2.72,1.26-4.83A13.6,13.6,0,0,0,19.5,9.11,13.64,13.64,0,0,0,13.64,5,7.27,7.27,0,0,0,11.39,4.58Z"></path>
      <path class="cls-1" d="M13.28,9.85c-.75.65-.34,2.36.92,3.82s2.9,2.13,3.65,1.48l10.91-9.4L24.19.45Z"></path>
      <path class="cls-2" d="M17.1,15.6a2.61,2.61,0,0,1-1-.21,5.63,5.63,0,0,1-2.09-1.59c-1.35-1.57-1.75-3.37-.9-4.1h0L24.06.3a.17.17,0,0,1,.15,0,.17.17,0,0,1,.13.07l4.57,5.3a.22.22,0,0,1,0,.29L18,15.3A1.3,1.3,0,0,1,17.1,15.6ZM13.41,10c-.66.57-.22,2.19.94,3.54A5.32,5.32,0,0,0,16.29,15a1.39,1.39,0,0,0,1.43,0L28.48,5.73l-4.31-5Z"></path>
      <ellipse class="cls-3" cx="26.48" cy="3.1" rx="1.8" ry="3.5" transform="translate(4.39 18.03) rotate(-40.74)"></ellipse>
      <path class="cls-2" d="M28,6.2A4.56,4.56,0,0,1,25,4.41,5.7,5.7,0,0,1,23.7,2.1,1.75,1.75,0,0,1,24.06.3C24.91-.43,26.64.23,28,1.8h0c1.35,1.57,1.75,3.37.9,4.11A1.32,1.32,0,0,1,28,6.2ZM24.94.4a.91.91,0,0,0-.62.2A1.38,1.38,0,0,0,24.09,2a5.43,5.43,0,0,0,1.17,2.14c1.17,1.35,2.71,2,3.37,1.45s.22-2.19-.94-3.54h0A4.29,4.29,0,0,0,24.94.4Z"></path>
    </g>
  </g>
</svg>