<svg xmlns="http://www.w3.org/2000/svg" viewBox="0 0 27.12 26.11">
  <defs>
    <style>.cls-1{fill:#fff;}.cls-2{fill:#292929;}.cls-3{fill:#e8e8e8;}.cls-4{fill:#00559d;}.cls-5{opacity:0.4;}</style>
  </defs>
  <g id="&#x56FE;&#x5C42;_2">
    <g id="&#x56FE;&#x5C42;_1-2">
      <polygon class="cls-1" points="18.02 0.2 26.92 5.34 18.02 10.48 9.11 5.34 18.02 0.2"></polygon>
      <path class="cls-2" d="M18,10.69a.17.17,0,0,1-.1,0L9,5.52a.22.22,0,0,1-.1-.18A.19.19,0,0,1,9,5.17L17.92,0a.18.18,0,0,1,.2,0L27,5.17a.19.19,0,0,1,.1.17.22.22,0,0,1-.1.18l-8.9,5.14ZM9.51,5.34,18,10.25l8.5-4.91L18,.43Z"></path>
      <polygon class="cls-3" points="26.92 15.63 26.92 5.34 18.02 10.48 18.02 20.77 26.92 15.63"></polygon>
      <path class="cls-2" d="M18,21a.17.17,0,0,1-.1,0,.18.18,0,0,1-.1-.17V10.49a.19.19,0,0,1,.1-.18l8.9-5.14a.18.18,0,0,1,.2,0,.19.19,0,0,1,.1.17V15.63a.19.19,0,0,1-.1.17l-8.9,5.14Zm.2-10.37v9.82l8.5-4.91V5.69Z"></path>
      <polygon class="cls-4" points="9.11 15.63 9.11 5.34 18.02 10.48 18.02 20.77 9.11 15.63"></polygon>
      <path class="cls-2" d="M18,21a.17.17,0,0,1-.1,0L9,15.8a.19.19,0,0,1-.1-.17V5.34A.19.19,0,0,1,9,5.17a.18.18,0,0,1,.2,0l8.91,5.14a.21.21,0,0,1,.1.18V20.77a.19.19,0,0,1-.1.17ZM9.31,15.51l8.51,4.91V10.6L9.31,5.69Z"></path>
      <g class="cls-5">
        <polygon class="cls-4" points="9.11 5.34 18.02 10.48 9.11 15.63 0.2 10.48 9.11 5.34"></polygon>
        <polygon class="cls-4" points="18.02 20.77 18.02 10.48 9.11 15.63 9.11 25.91 18.02 20.77"></polygon>
        <polygon class="cls-4" points="0.2 20.77 0.2 10.48 9.11 15.63 9.11 25.91 0.2 20.77"></polygon>
      </g>
      <path class="cls-2" d="M17.15,11.19a.19.19,0,0,1-.17-.1.2.2,0,0,1,.07-.28l.87-.5a.2.2,0,0,1,.27.08.21.21,0,0,1-.07.27l-.87.5A.19.19,0,0,1,17.15,11.19Z"></path>
      <path class="cls-2" d="M11.41,14.5a.19.19,0,0,1-.17-.1.19.19,0,0,1,.07-.27l1.43-.83a.21.21,0,0,1,.28.07.2.2,0,0,1-.08.27l-1.43.83A.19.19,0,0,1,11.41,14.5Zm2.87-1.66a.18.18,0,0,1-.17-.1.19.19,0,0,1,.07-.27l1.43-.83a.22.22,0,0,1,.28.07.21.21,0,0,1-.08.28l-1.43.83Z"></path>
      <path class="cls-2" d="M9.11,15.83a.17.17,0,0,1-.1,0l-.87-.5A.2.2,0,0,1,8.07,15,.2.2,0,0,1,8.34,15l.77.45L9.87,15a.21.21,0,0,1,.28.08.2.2,0,0,1-.08.27l-.86.5A.19.19,0,0,1,9.11,15.83Z"></path>
      <path class="cls-2" d="M6.81,14.5a.17.17,0,0,1-.1,0l-1.44-.83a.19.19,0,0,1-.07-.27.2.2,0,0,1,.27-.07l1.44.83A.19.19,0,0,1,7,14.4.21.21,0,0,1,6.81,14.5ZM3.94,12.84l-.1,0L2.4,12a.21.21,0,0,1-.07-.28.21.21,0,0,1,.27-.07L4,12.47a.2.2,0,0,1,.07.27A.19.19,0,0,1,3.94,12.84Z"></path>
      <path class="cls-2" d="M1.07,11.19a.17.17,0,0,1-.1,0l-.87-.5a.21.21,0,0,1-.1-.17.21.21,0,0,1,.1-.18L1,9.81a.2.2,0,0,1,.27.08.21.21,0,0,1-.07.27l-.57.33.57.32a.22.22,0,0,1,.07.28A.22.22,0,0,1,1.07,11.19Z"></path>
      <path class="cls-2" d="M2.5,9.36A.2.2,0,0,1,2.4,9l1.44-.83a.2.2,0,0,1,.27.08A.2.2,0,0,1,4,8.5L2.6,9.33A.17.17,0,0,1,2.5,9.36ZM5.37,7.7a.21.21,0,0,1-.17-.1.19.19,0,0,1,.07-.27L6.71,6.5A.2.2,0,0,1,7,6.57a.19.19,0,0,1-.07.27l-1.44.83A.17.17,0,0,1,5.37,7.7Z"></path>
      <path class="cls-2" d="M8.24,6a.19.19,0,0,1-.17-.1.2.2,0,0,1,.07-.27L9,5.17a.2.2,0,0,1,.2.35L8.34,6Z"></path>
      <path class="cls-2" d="M17.15,11.19a.19.19,0,0,1-.17-.1.2.2,0,0,1,.07-.28l.87-.5a.2.2,0,0,1,.27.08.21.21,0,0,1-.07.27l-.87.5A.19.19,0,0,1,17.15,11.19Z"></path>
      <path class="cls-2" d="M11.41,14.5a.19.19,0,0,1-.17-.1.19.19,0,0,1,.07-.27l1.43-.83a.21.21,0,0,1,.28.07.2.2,0,0,1-.08.27l-1.43.83A.19.19,0,0,1,11.41,14.5Zm2.87-1.66a.18.18,0,0,1-.17-.1.19.19,0,0,1,.07-.27l1.43-.83a.22.22,0,0,1,.28.07.21.21,0,0,1-.08.28l-1.43.83Z"></path>
      <path class="cls-2" d="M9.11,16.83a.2.2,0,0,1-.2-.2v-1a.22.22,0,0,1,.1-.18l.86-.5a.21.21,0,0,1,.28.08.2.2,0,0,1-.08.27l-.76.44v.89A.2.2,0,0,1,9.11,16.83Z"></path>
      <path class="cls-2" d="M9.11,23.46a.2.2,0,0,1-.2-.2V21.6a.2.2,0,0,1,.4,0v1.66A.2.2,0,0,1,9.11,23.46Zm0-3.32a.2.2,0,0,1-.2-.2V18.29a.2.2,0,1,1,.4,0v1.65A.2.2,0,0,1,9.11,20.14Z"></path>
      <path class="cls-2" d="M9.11,26.11l-.1,0a.22.22,0,0,1-.1-.18v-1a.2.2,0,0,1,.4,0v.66l.56-.33a.22.22,0,0,1,.28.07.21.21,0,0,1-.08.28l-.86.5Z"></path>
      <path class="cls-2" d="M11.41,24.79a.19.19,0,0,1-.17-.1.2.2,0,0,1,.07-.28l1.44-.83a.2.2,0,1,1,.19.35l-1.43.83A.19.19,0,0,1,11.41,24.79Zm2.87-1.66a.19.19,0,0,1-.17-.1.2.2,0,0,1,.07-.28l1.44-.82a.19.19,0,0,1,.27.07.2.2,0,0,1-.08.27l-1.43.83A.19.19,0,0,1,14.28,23.13Z"></path>
      <path class="cls-2" d="M17.15,21.47a.18.18,0,0,1-.17-.1.19.19,0,0,1,.07-.27l.87-.5a.2.2,0,0,1,.27.07.2.2,0,0,1-.07.27l-.87.5A.19.19,0,0,1,17.15,21.47Z"></path>
      <path class="cls-2" d="M1.07,21.47a.17.17,0,0,1-.1,0l-.87-.5a.19.19,0,0,1-.1-.17v-1a.2.2,0,0,1,.4,0v.89l.77.44a.21.21,0,0,1,.07.27A.2.2,0,0,1,1.07,21.47Z"></path>
      <path class="cls-2" d="M.2,18.31a.2.2,0,0,1-.2-.2V16.46a.2.2,0,0,1,.4,0v1.65A.2.2,0,0,1,.2,18.31ZM.2,15a.2.2,0,0,1-.2-.2V13.14a.2.2,0,1,1,.4,0V14.8A.2.2,0,0,1,.2,15Z"></path>
      <path class="cls-2" d="M.2,11.69a.2.2,0,0,1-.2-.2v-1a.21.21,0,0,1,.1-.18.23.23,0,0,1,.2,0l.87.5a.22.22,0,0,1,.07.28.21.21,0,0,1-.27.07L.4,10.83v.66A.2.2,0,0,1,.2,11.69Z"></path>
      <path class="cls-2" d="M6.81,14.5a.17.17,0,0,1-.1,0l-1.44-.83a.19.19,0,0,1-.07-.27.2.2,0,0,1,.27-.07l1.44.83A.19.19,0,0,1,7,14.4.21.21,0,0,1,6.81,14.5ZM3.94,12.84l-.1,0L2.4,12a.21.21,0,0,1-.07-.28.21.21,0,0,1,.27-.07L4,12.47a.2.2,0,0,1,.07.27A.19.19,0,0,1,3.94,12.84Z"></path>
      <path class="cls-2" d="M9.11,16.83a.2.2,0,0,1-.2-.2v-.89l-.77-.44A.2.2,0,0,1,8.07,15,.2.2,0,0,1,8.34,15l.87.5a.22.22,0,0,1,.1.18v1A.2.2,0,0,1,9.11,16.83Z"></path>
      <path class="cls-2" d="M9.11,23.46a.2.2,0,0,1-.2-.2V21.6a.2.2,0,0,1,.4,0v1.66A.2.2,0,0,1,9.11,23.46Zm0-3.32a.2.2,0,0,1-.2-.2V18.29a.2.2,0,1,1,.4,0v1.65A.2.2,0,0,1,9.11,20.14Z"></path>
      <path class="cls-2" d="M9.11,26.11l-.1,0-.87-.5a.21.21,0,0,1-.07-.28.21.21,0,0,1,.27-.07l.57.33v-.66a.2.2,0,0,1,.4,0v1a.22.22,0,0,1-.1.18Z"></path>
      <path class="cls-2" d="M6.81,24.79a.17.17,0,0,1-.1,0l-1.44-.83a.2.2,0,0,1,.2-.35l1.44.83a.2.2,0,0,1-.1.38ZM3.94,23.13a.17.17,0,0,1-.1,0L2.4,22.27A.19.19,0,0,1,2.33,22a.19.19,0,0,1,.27-.07L4,22.75a.2.2,0,0,1-.1.38Z"></path>
      <path class="cls-4" d="M14.55,25.54l2.24-.18a.11.11,0,0,0,.07-.16l-.41-.58,2.71-1.94a.45.45,0,0,0,.1-.62.44.44,0,0,0-.62-.1L15.93,23.9l-.42-.58a.1.1,0,0,0-.17,0l-.89,2.06A.1.1,0,0,0,14.55,25.54Z"></path>
    </g>
  </g>
</svg>