<svg xmlns="http://www.w3.org/2000/svg" viewBox="0 0 22.4 32.29">
  <defs>
    <style>.cls-1{fill:#00559d;}.cls-2{fill:#292929;}.cls-3{fill:#fff;}</style>
  </defs>
  <g id="&#x56FE;&#x5C42;_2">
    <g id="&#x56FE;&#x5C42;_1-2">
      <polygon class="cls-1" points="21.77 10.43 11.17 16.55 0.56 10.43 11.17 4.31 21.77 10.43 11.17 16.55 11.17 28.79 21.77 22.67 21.77 10.43"></polygon>
      <path class="cls-2" d="M11.17,29l-.1,0a.2.2,0,0,1-.1-.18V16.67L.46,10.6a.19.19,0,0,1-.1-.17.22.22,0,0,1,.1-.18L11.07,4.13a.23.23,0,0,1,.2,0l10.6,6.12a.22.22,0,0,1,.1.18V22.67a.19.19,0,0,1-.1.17L11.27,29Zm.2-12.32V28.45l10.2-5.89V10.77ZM1,10.43l10.21,5.89,10.2-5.89L11.17,4.54Z"></path>
      <polygon class="cls-3" points="0.56 22.67 0.56 10.43 11.17 16.55 11.17 28.79 0.56 22.67"></polygon>
      <path class="cls-2" d="M11.17,29l-.1,0L.46,22.84a.19.19,0,0,1-.1-.17V10.43a.22.22,0,0,1,.1-.18.23.23,0,0,1,.2,0l10.61,6.13a.19.19,0,0,1,.1.17V28.79a.22.22,0,0,1-.1.18ZM.76,22.56,11,28.45V16.67L.76,10.77Z"></path>
      <polygon class="cls-3" points="11.23 16.55 11.23 28.79 21.84 22.67 21.84 10.43 11.23 16.55"></polygon>
      <path class="cls-2" d="M11.23,29l-.1,0a.22.22,0,0,1-.1-.18V16.55a.19.19,0,0,1,.1-.17l10.61-6.13a.23.23,0,0,1,.2,0,.22.22,0,0,1,.1.18V22.67a.19.19,0,0,1-.1.17L11.33,29Zm.2-12.32V28.45l10.21-5.89V10.77Z"></path>
      <path class="cls-1" d="M17.17,9.14l-.09-5.51,1.21,0a.12.12,0,0,0,.1-.18l-2-3.17a.11.11,0,0,0-.2,0L14.34,3.49a.12.12,0,0,0,.1.18l1.22,0,.09,5.51a.52.52,0,0,0,.53.52h.37A.52.52,0,0,0,17.17,9.14Z"></path>
      <path class="cls-2" d="M16.27,9.88a.67.67,0,0,1-.5-.21.68.68,0,0,1-.22-.5l-.09-5.32-1,0a.33.33,0,0,1-.28-.16.31.31,0,0,1,0-.32L16,.16A.29.29,0,0,1,16.31,0a.36.36,0,0,1,.27.15l2,3.17a.32.32,0,0,1-.27.49h-1l.09,5.32a.71.71,0,0,1-.21.51.69.69,0,0,1-.51.22h-.38Zm-.61-6.43a.21.21,0,0,1,.2.2L16,9.16a.32.32,0,0,0,.09.23.39.39,0,0,0,.24.09h.37A.32.32,0,0,0,17,9.14h0l-.09-5.51a.19.19,0,0,1,.05-.14.2.2,0,0,1,.14-.06l1.07,0L16.31.48l-1.72,3,1.06,0Zm-1.15.14ZM16.24.36Z"></path>
      <path class="cls-2" d="M1.06,26.28a.19.19,0,0,1-.1,0L.1,25.74A.2.2,0,0,1,0,25.46a.21.21,0,0,1,.27-.07l.86.51a.2.2,0,0,1,.07.28A.19.19,0,0,1,1.06,26.28Z"></path>
      <path class="cls-2" d="M8.48,30.68a.19.19,0,0,1-.1,0l-1.85-1.1a.2.2,0,0,1,.2-.34l1.86,1.1a.21.21,0,0,1,.07.27A.2.2,0,0,1,8.48,30.68Zm-3.71-2.2a.19.19,0,0,1-.1,0l-1.86-1.1A.2.2,0,1,1,3,27l1.85,1.11a.19.19,0,0,1,.07.27A.19.19,0,0,1,4.77,28.48Z"></path>
      <path class="cls-2" d="M11.2,32.29a.16.16,0,0,1-.1,0l-.86-.51a.2.2,0,0,1-.07-.28.21.21,0,0,1,.27-.07l.86.51a.2.2,0,0,1,.07.28A.2.2,0,0,1,11.2,32.29Z"></path>
      <path class="cls-2" d="M21.34,26.28a.21.21,0,0,1-.17-.1.2.2,0,0,1,.07-.28l.86-.51a.2.2,0,0,1,.27.07.2.2,0,0,1-.07.28l-.86.51A.19.19,0,0,1,21.34,26.28Z"></path>
      <path class="cls-2" d="M13.92,30.68a.2.2,0,0,1-.18-.1.21.21,0,0,1,.07-.27l1.86-1.1a.2.2,0,1,1,.2.34L14,30.65A.19.19,0,0,1,13.92,30.68Zm3.71-2.2a.19.19,0,0,1-.17-.1.19.19,0,0,1,.07-.27L19.38,27a.2.2,0,0,1,.21.35l-1.86,1.1A.19.19,0,0,1,17.63,28.48Z"></path>
      <path class="cls-2" d="M11.2,32.29A.2.2,0,0,1,11,32.2a.2.2,0,0,1,.07-.28l.86-.51a.2.2,0,0,1,.27.07.2.2,0,0,1-.07.28l-.86.51A.16.16,0,0,1,11.2,32.29Z"></path>
    </g>
  </g>
</svg>