<svg xmlns="http://www.w3.org/2000/svg" viewBox="0 0 26.46 30.4">
  <defs>
    <style>.cls-1{fill:#fff;}.cls-2{fill:#292929;}.cls-3{fill:#00559d;}</style>
  </defs>
  <g id="&#x56FE;&#x5C42;_2">
    <g id="&#x56FE;&#x5C42;_1-2">
      <polygon class="cls-1" points="26.18 7.7 13.19 15.2 0.2 7.7 13.19 0.2 26.18 7.7 13.19 15.2 13.19 30.2 26.18 22.7 26.18 7.7"></polygon>
      <path class="cls-2" d="M13.19,30.4a.21.21,0,0,1-.2-.2V15.31L.1,7.87a.19.19,0,0,1,0-.34l13-7.5a.18.18,0,0,1,.2,0l13,7.5h0l0,0a.24.24,0,0,1,.06.11h0v15a.19.19,0,0,1-.1.17l-13,7.5A.19.19,0,0,1,13.19,30.4Zm.2-15.09V29.85L26,22.58V8.05ZM.6,7.7,13.19,15,25.78,7.7,13.19.43Z"></path>
      <polygon class="cls-1" points="0.2 22.7 0.2 7.7 13.19 15.2 13.19 30.2 0.2 22.7"></polygon>
      <path class="cls-2" d="M13.19,30.4a.19.19,0,0,1-.1,0l-13-7.5A.19.19,0,0,1,0,22.7V7.7a.19.19,0,0,1,.1-.17.18.18,0,0,1,.2,0l13,7.5a.19.19,0,0,1,.1.17v15a.21.21,0,0,1-.2.2ZM.4,22.58,13,29.85V15.31L.4,8.05Z"></path>
      <polygon class="cls-3" points="13.27 15.2 13.27 30.2 26.26 22.7 26.26 7.7 13.27 15.2"></polygon>
      <path class="cls-2" d="M13.27,30.4a.21.21,0,0,1-.2-.2v-15a.19.19,0,0,1,.1-.17l13-7.5a.18.18,0,0,1,.2,0,.19.19,0,0,1,.1.17v15a.19.19,0,0,1-.1.17l-13,7.5A.19.19,0,0,1,13.27,30.4Zm.2-15.09V29.85l12.59-7.27V8.05Z"></path>
    </g>
  </g>
</svg>