<svg xmlns="http://www.w3.org/2000/svg" viewBox="0 0 22.4 25.73">
  <defs>
    <style>.cls-1{fill:#fff;}.cls-2{fill:#292929;}.cls-3{opacity:0.4;}.cls-4{fill:#00559d;}.cls-5{fill:#f2f2f2;}</style>
  </defs>
  <g id="&#x56FE;&#x5C42;_2">
    <g id="&#x56FE;&#x5C42;_1-2">
      <polygon class="cls-1" points="22.13 6.53 11.17 12.86 0.2 6.53 11.17 0.2 22.13 6.53 11.17 12.86 11.17 25.52 22.13 19.19 22.13 6.53"></polygon>
      <path class="cls-2" d="M11.17,25.73a.17.17,0,0,1-.1,0,.19.19,0,0,1-.1-.18V13L.1,6.7a.19.19,0,0,1,0-.34L11.07,0a.18.18,0,0,1,.2,0l11,6.33a.1.1,0,0,1,.06,0h0a.15.15,0,0,1,0,.11V19.19a.22.22,0,0,1-.1.18l-11,6.33A.19.19,0,0,1,11.17,25.73ZM11.37,13v12.2l10.56-6.1V6.88ZM.6,6.53l10.57,6.1,10.56-6.1L11.17.43Z"></path>
      <polygon class="cls-1" points="0.2 19.19 0.2 6.53 11.17 12.86 11.17 25.52 0.2 19.19"></polygon>
      <g class="cls-3">
        <polygon class="cls-4" points="0.2 19.19 0.2 6.53 11.17 12.86 11.17 25.52 0.2 19.19"></polygon>
      </g>
      <path class="cls-2" d="M11.17,25.73a.17.17,0,0,1-.1,0L.1,19.37a.22.22,0,0,1-.1-.18V6.53a.19.19,0,0,1,.1-.17.18.18,0,0,1,.2,0l11,6.33a.19.19,0,0,1,.1.17V25.52a.21.21,0,0,1-.1.18A.19.19,0,0,1,11.17,25.73ZM.4,19.08,11,25.18V13L.4,6.88Z"></path>
      <polygon class="cls-4" points="1.91 18.59 1.91 9.79 9.51 14.19 9.51 22.99 1.91 18.59"></polygon>
      <path class="cls-2" d="M9.51,22.81a.2.2,0,0,1-.2-.2v-2a.2.2,0,0,1,.4,0v2A.2.2,0,0,1,9.51,22.81Zm-1.39-.43-.11,0-1.73-1a.2.2,0,0,1-.07-.27A.2.2,0,0,1,6.49,21l1.73,1a.21.21,0,0,1,.07.27A.2.2,0,0,1,8.12,22.38Zm-3.47-2-.1,0-1.73-1a.2.2,0,0,1-.07-.27A.2.2,0,0,1,3,19l1.73,1a.2.2,0,0,1,.08.27A.22.22,0,0,1,4.65,20.38Zm4.86-1.57a.2.2,0,0,1-.2-.2v-2a.2.2,0,0,1,.4,0v2A.2.2,0,0,1,9.51,18.81Zm-7.6,0a.2.2,0,0,1-.2-.2v-2a.2.2,0,0,1,.4,0v2A.2.2,0,0,1,1.91,18.79Zm7.6-4a.2.2,0,0,1-.2-.2V14.3L8,13.57a.2.2,0,0,1,.2-.35l1.37.8a.19.19,0,0,1,.1.17v.42A.2.2,0,0,1,9.51,14.81Zm-7.6,0a.2.2,0,0,1-.2-.2v-2a.2.2,0,0,1,.4,0v2A.2.2,0,0,1,1.91,14.79Zm4.5-2.2-.1,0-1.73-1a.2.2,0,1,1,.2-.34l1.73,1a.19.19,0,0,1,.07.27A.18.18,0,0,1,6.41,12.59Zm-4.5-1.8a.2.2,0,0,1-.2-.2v-.8a.22.22,0,0,1,.1-.18.2.2,0,0,1,.2,0l1,.6a.19.19,0,0,1,.07.27.19.19,0,0,1-.27.07l-.74-.42v.45A.2.2,0,0,1,1.91,10.79Z"></path>
      <path class="cls-2" d="M10.36,13.91a.22.22,0,0,1-.15-.06.23.23,0,0,1,0-.29l.85-.84a.2.2,0,0,1,.28.28l-.84.85A.2.2,0,0,1,10.36,13.91Z"></path>
      <path class="cls-2" d="M1.38,9.08A.21.21,0,0,1,1.2,9L.36,7.28A.2.2,0,1,1,.72,7.1l.84,1.69a.2.2,0,0,1-.09.27A.15.15,0,0,1,1.38,9.08Z"></path>
      <path class="cls-2" d="M.22,19.33A.18.18,0,0,1,0,19.21.19.19,0,0,1,.14,19L1,18.59a.19.19,0,0,1,.26.1.2.2,0,0,1-.1.27l-.85.36Z"></path>
      <path class="cls-2" d="M10.86,25.22a.18.18,0,0,1-.16-.09l-1-1.52a.2.2,0,1,1,.34-.22l1,1.52a.19.19,0,0,1-.06.27A.15.15,0,0,1,10.86,25.22Z"></path>
      <polygon class="cls-5" points="11.23 12.86 11.23 25.52 22.2 19.19 22.2 6.53 11.23 12.86"></polygon>
      <path class="cls-2" d="M11.23,25.73l-.1,0a.21.21,0,0,1-.1-.18V12.86a.19.19,0,0,1,.1-.17l11-6.33a.18.18,0,0,1,.2,0,.19.19,0,0,1,.1.17V19.19a.22.22,0,0,1-.1.18l-11,6.33A.17.17,0,0,1,11.23,25.73ZM11.43,13v12.2L22,19.08V6.88Z"></path>
    </g>
  </g>
</svg>