<svg xmlns="http://www.w3.org/2000/svg" viewBox="0 0 31.81 25.73">
  <defs>
    <style>.cls-1{fill:#ccc;}.cls-2{fill:#292929;}.cls-3{fill:#f2f2f2;}.cls-4{opacity:0.4;}.cls-5{fill:#00559d;}.cls-6{fill:#fff;}</style>
  </defs>
  <g id="&#x56FE;&#x5C42;_2">
    <g id="&#x56FE;&#x5C42;_1-2">
      <polygon class="cls-1" points="6.11 19.19 6.11 6.53 17.08 12.86 17.08 25.52 6.11 19.19"></polygon>
      <path class="cls-2" d="M17.08,25.73a.19.19,0,0,1-.1,0L6,19.37a.22.22,0,0,1-.1-.18V6.53A.19.19,0,0,1,6,6.36a.18.18,0,0,1,.2,0l11,6.33a.19.19,0,0,1,.1.17V25.52a.21.21,0,0,1-.1.18A.19.19,0,0,1,17.08,25.73ZM6.31,19.08l10.57,6.1V13L6.31,6.88Z"></path>
      <line class="cls-3" x1="6.11" y1="18.86" x2="17.11" y2="12.86"></line>
      <path class="cls-2" d="M6.11,19.06a.19.19,0,0,1-.17-.1A.2.2,0,0,1,6,18.69l11-6a.19.19,0,0,1,.27.08.2.2,0,0,1-.08.27l-11,6Z"></path>
      <g class="cls-4">
        <polygon class="cls-5" points="11.11 10.86 22.11 16.86 11.11 23.86 0.11 17.86 11.11 10.86"></polygon>
      </g>
      <path class="cls-2" d="M11.11,24.06,11,24l-.38-.21a.2.2,0,1,1,.19-.35l.28.15,1.22-.78a.21.21,0,0,1,.28.06.2.2,0,0,1-.07.28L11.22,24A.2.2,0,0,1,11.11,24.06ZM9,22.9a.19.19,0,0,1-.1,0l-1.75-.95a.2.2,0,0,1-.08-.28.21.21,0,0,1,.27-.08l1.76,1a.2.2,0,0,1-.1.38Zm5.14-.75a.19.19,0,0,1-.16-.1.19.19,0,0,1,.06-.27L15.7,20.7a.21.21,0,0,1,.28.07.2.2,0,0,1-.06.27l-1.69,1.08A.2.2,0,0,1,14.12,22.15ZM5.47,21a.18.18,0,0,1-.1,0L3.62,20a.19.19,0,0,1-.08-.27.2.2,0,0,1,.27-.08l1.75,1a.19.19,0,0,1,.08.27A.19.19,0,0,1,5.47,21Zm12-1a.2.2,0,0,1-.17-.09.21.21,0,0,1,.06-.28l1.69-1.07a.2.2,0,1,1,.21.33L17.61,20A.23.23,0,0,1,17.5,20ZM2,19.07a.17.17,0,0,1-.1,0l-1.76-1A.21.21,0,0,1,0,17.81a.22.22,0,0,1,.28-.08l1.75,1a.2.2,0,0,1,.08.27A.18.18,0,0,1,2,19.07Zm18.91-1.22a.2.2,0,0,1-.1-.37l.95-.6-.17-.1a.21.21,0,0,1-.08-.27.21.21,0,0,1,.27-.08l.47.26a.19.19,0,0,1,.1.17.18.18,0,0,1-.09.17L21,17.82A.2.2,0,0,1,20.87,17.85ZM1.72,17A.2.2,0,0,1,1.55,17a.21.21,0,0,1,.06-.28L3.3,15.6a.21.21,0,0,1,.28.06.21.21,0,0,1-.07.28L1.83,17A.23.23,0,0,1,1.72,17Zm18.17-1.19-.09,0-1.76-1A.21.21,0,0,1,18,14.6a.19.19,0,0,1,.27-.08l1.76,1a.2.2,0,0,1,.08.27A.22.22,0,0,1,19.89,15.85Zm-14.8-1a.2.2,0,0,1-.1-.37l1.68-1.07a.21.21,0,0,1,.28.06.21.21,0,0,1-.06.28L5.2,14.86A.2.2,0,0,1,5.09,14.89Zm11.29-1-.09,0-1.76-1a.2.2,0,1,1,.19-.35l1.76,1a.21.21,0,0,1,.08.27A.21.21,0,0,1,16.38,13.94ZM8.47,12.75a.21.21,0,0,1-.17-.1.2.2,0,0,1,.06-.27l1.69-1.08a.2.2,0,0,1,.27.07.19.19,0,0,1-.06.27L8.58,12.72Zm4.4-.73-.1,0L11,11a.2.2,0,0,1-.08-.27.19.19,0,0,1,.27-.08l1.76,1a.2.2,0,0,1-.1.38Z"></path>
      <polygon class="cls-6" points="28.05 6.53 17.08 12.86 6.11 6.53 17.08 0.2 28.05 6.53 17.08 12.86 17.08 25.52 28.05 19.19 28.05 6.53"></polygon>
      <path class="cls-2" d="M17.08,25.73a.19.19,0,0,1-.1,0,.21.21,0,0,1-.1-.18V13L6,6.7a.19.19,0,0,1,0-.34L17,0a.18.18,0,0,1,.2,0l11,6.33.06,0h0a.21.21,0,0,1,0,.11V19.19a.22.22,0,0,1-.1.18l-11,6.33A.19.19,0,0,1,17.08,25.73ZM17.28,13v12.2l10.57-6.1V6.88ZM6.51,6.53l10.57,6.1,10.57-6.1L17.08.43Z"></path>
      <polygon class="cls-3" points="17.15 12.86 17.15 25.52 28.11 19.19 28.11 6.53 17.15 12.86"></polygon>
      <path class="cls-2" d="M17.15,25.73a.17.17,0,0,1-.1,0,.21.21,0,0,1-.1-.18V12.86a.19.19,0,0,1,.1-.17L28,6.36a.18.18,0,0,1,.2,0,.18.18,0,0,1,.1.17V19.19a.2.2,0,0,1-.1.18l-11,6.33A.19.19,0,0,1,17.15,25.73ZM17.35,13v12.2l10.56-6.1V6.88Z"></path>
      <path class="cls-5" d="M24.36,18.1A4.26,4.26,0,0,0,24,23.68l.44-.44.37-.37.79-.79-1.23-.32a.1.1,0,0,1,0-.05,3.1,3.1,0,0,1,4.78-3.19s0,0,.06,0l.73-.73a.06.06,0,0,0,0-.09A4.26,4.26,0,0,0,24.36,18.1Z"></path>
      <path class="cls-2" d="M24,23.88h0a.19.19,0,0,1-.15-.08A4.46,4.46,0,0,1,24.22,18h0A4.48,4.48,0,0,1,30,17.53a.32.32,0,0,1,.1.19.25.25,0,0,1-.07.2l-.73.73a.26.26,0,0,1-.33,0,2.92,2.92,0,0,0-3.67.37,2.89,2.89,0,0,0-.81,2.53l1.14.31a.18.18,0,0,1,.14.14.21.21,0,0,1-.05.2l-1.6,1.6A.24.24,0,0,1,24,23.88Zm.51-5.64h0A4.07,4.07,0,0,0,24,23.38l1.18-1.19L24.31,22a.25.25,0,0,1-.18-.2,3.3,3.3,0,0,1,5-3.46l.53-.53a4.09,4.09,0,0,0-5.14.48Zm-.09,3.32h0Zm4.79-3.21h0Z"></path>
      <path class="cls-5" d="M30.37,24.11a4.24,4.24,0,0,0,.37-5.58L30.3,19l-.37.36-.79.79,1.23.33a.07.07,0,0,1,0,.05,3.1,3.1,0,0,1-4.77,3.19.06.06,0,0,0-.07,0l-.73.73a.06.06,0,0,0,0,.09A4.25,4.25,0,0,0,30.37,24.11Z"></path>
      <path class="cls-2" d="M27.37,25.55a4.41,4.41,0,0,1-2.64-.86.37.37,0,0,1-.11-.19.28.28,0,0,1,.08-.2l.73-.74a.26.26,0,0,1,.32,0,2.92,2.92,0,0,0,3.68-.36,2.89,2.89,0,0,0,.8-2.54l-1.14-.3a.22.22,0,0,1-.14-.14A.21.21,0,0,1,29,20l1.6-1.6a.21.21,0,0,1,.16-.06.22.22,0,0,1,.14.08,4.47,4.47,0,0,1-.38,5.85h0A4.48,4.48,0,0,1,27.37,25.55ZM25.1,24.46a4,4,0,0,0,5.62-5.62L29.53,20l.89.24a.25.25,0,0,1,.19.2,3.27,3.27,0,0,1-.9,3,3.31,3.31,0,0,1-4.08.48Zm5.22-3.81h0Zm-.1-.1Z"></path>
    </g>
  </g>
</svg>