<svg xmlns="http://www.w3.org/2000/svg" viewBox="0 0 22.4 25.73">
  <defs>
    <style>.cls-1{fill:#fff;}.cls-2{fill:#292929;}.cls-3{opacity:0.4;}.cls-4{fill:#00559d;}.cls-5{fill:#f2f2f2;}</style>
  </defs>
  <g id="&#x56FE;&#x5C42;_2">
    <g id="&#x56FE;&#x5C42;_1-2">
      <polygon class="cls-1" points="22.13 6.53 11.17 12.86 0.2 6.53 11.17 0.2 22.13 6.53 11.17 12.86 11.17 25.52 22.13 19.19 22.13 6.53"></polygon>
      <path class="cls-2" d="M11.17,25.73a.17.17,0,0,1-.1,0,.19.19,0,0,1-.1-.18V13L.1,6.7a.19.19,0,0,1,0-.34L11.07,0a.18.18,0,0,1,.2,0l11,6.33a.1.1,0,0,1,.06,0h0a.15.15,0,0,1,0,.11V19.19a.22.22,0,0,1-.1.18l-11,6.33A.19.19,0,0,1,11.17,25.73ZM11.37,13v12.2l10.56-6.1V6.88ZM.6,6.53l10.57,6.1,10.56-6.1L11.17.43Z"></path>
      <polygon class="cls-1" points="0.2 19.19 0.2 6.53 11.17 12.86 11.17 25.52 0.2 19.19"></polygon>
      <g class="cls-3">
        <polygon class="cls-4" points="0.2 19.19 0.2 6.53 11.17 12.86 11.17 25.52 0.2 19.19"></polygon>
      </g>
      <path class="cls-2" d="M11.17,25.73a.17.17,0,0,1-.1,0L.1,19.37a.22.22,0,0,1-.1-.18V6.53a.19.19,0,0,1,.1-.17.18.18,0,0,1,.2,0l11,6.33a.19.19,0,0,1,.1.17V25.52a.21.21,0,0,1-.1.18A.19.19,0,0,1,11.17,25.73ZM.4,19.08,11,25.18V13L.4,6.88Z"></path>
      <polygon class="cls-5" points="11.23 12.86 11.23 25.52 22.2 19.19 22.2 6.53 11.23 12.86"></polygon>
      <path class="cls-2" d="M11.23,25.73l-.1,0a.21.21,0,0,1-.1-.18V12.86a.19.19,0,0,1,.1-.17l11-6.33a.18.18,0,0,1,.2,0,.19.19,0,0,1,.1.17V19.19a.22.22,0,0,1-.1.18l-11,6.33A.17.17,0,0,1,11.23,25.73ZM11.43,13v12.2L22,19.08V6.88Z"></path>
      <path class="cls-4" d="M11,25.63a.19.19,0,0,1-.17-.1l-.73-1.26a.19.19,0,0,1,.07-.27.19.19,0,0,1,.27.07l.73,1.26a.19.19,0,0,1-.07.27A.19.19,0,0,1,11,25.63Zm-1.73-3a.19.19,0,0,1-.17-.1L8,20.81a.2.2,0,0,1,.08-.27.19.19,0,0,1,.27.07l1,1.73a.2.2,0,0,1-.17.3Zm-2-3.46a.22.22,0,0,1-.17-.1L6,17.35a.21.21,0,0,1,.07-.28.21.21,0,0,1,.28.08l1,1.73a.21.21,0,0,1-.07.27A.23.23,0,0,1,7.21,19.18Zm-2-3.46a.21.21,0,0,1-.17-.1L4,13.89a.2.2,0,0,1,.07-.28.2.2,0,0,1,.27.08l1,1.73a.19.19,0,0,1-.07.27A.17.17,0,0,1,5.21,15.72Zm-2-3.47a.2.2,0,0,1-.18-.1L2,10.42a.21.21,0,0,1,.07-.27.22.22,0,0,1,.28.07l1,1.73a.22.22,0,0,1-.07.28A.2.2,0,0,1,3.21,12.25Zm-2-3.46A.19.19,0,0,1,1,8.69L0,7A.19.19,0,0,1,.1,6.69a.19.19,0,0,1,.27.07l1,1.73a.21.21,0,0,1-.08.28Z"></path>
    </g>
  </g>
</svg>