<svg xmlns="http://www.w3.org/2000/svg" viewBox="0 0 40 38.61">
  <defs>
    <style>.cls-1{fill:#e6e6e6;}.cls-2{fill:#999;}.cls-3{fill:#ccc;}</style>
  </defs>
  <g id="&#x56FE;&#x5C42;_2">
    <g id="&#x56FE;&#x5C42;_1-2">
      <polygon class="cls-1" points="20 33.06 20 21.94 10 16.39 0 21.94 0 33.06 10 38.61 20 33.06"></polygon>
      <polygon class="cls-2" points="20 21.94 10 27.5 10 38.61 20 33.06 20 21.94"></polygon>
      <polygon class="cls-3" points="10 27.5 0 21.94 0 33.06 10 38.61 10 27.5"></polygon>
      <polygon class="cls-1" points="40 33.06 40 21.94 30 16.39 20 21.94 20 33.06 30 38.61 40 33.06"></polygon>
      <polygon class="cls-2" points="40 21.94 30 27.5 30 38.61 40 33.06 40 21.94"></polygon>
      <polygon class="cls-3" points="30 27.5 20 21.94 20 33.06 30 38.61 30 27.5"></polygon>
      <polygon class="cls-1" points="30 16.67 30 5.56 20 0 10 5.56 10 16.67 20 22.22 30 16.67"></polygon>
      <polygon class="cls-2" points="30 5.56 20 11.11 20 22.22 30 16.67 30 5.56"></polygon>
      <polygon class="cls-3" points="20 11.11 10 5.56 10 16.67 20 22.22 20 11.11"></polygon>
    </g>
  </g>
</svg>