<svg xmlns="http://www.w3.org/2000/svg" viewBox="0 0 23.6 29.48">
  <defs>
    <style>.cls-1{fill:#fff;}.cls-2{fill:#292929;}.cls-3{fill:#e8e8e8;}.cls-4{fill:#00559d;}.cls-5{opacity:0.4;}</style>
  </defs>
  <g id="&#x56FE;&#x5C42;_2">
    <g id="&#x56FE;&#x5C42;_1-2">
      <polygon class="cls-1" points="13.49 0.72 23.4 6.45 13.49 12.17 3.57 6.45 13.49 0.72"></polygon>
      <path class="cls-2" d="M13.49,12.37l-.1,0L3.47,6.62a.21.21,0,0,1-.1-.17.22.22,0,0,1,.1-.18L13.39.55a.18.18,0,0,1,.2,0L23.5,6.27a.2.2,0,0,1,.1.18.19.19,0,0,1-.1.17l-9.91,5.73ZM4,6.45l9.52,5.49L23,6.45,13.49,1Z"></path>
      <polygon class="cls-3" points="23.4 17.9 23.4 6.45 13.49 12.17 13.49 23.62 23.4 17.9"></polygon>
      <path class="cls-2" d="M13.49,23.82a.17.17,0,0,1-.1,0,.19.19,0,0,1-.1-.17V12.17a.19.19,0,0,1,.1-.17L23.3,6.27a.23.23,0,0,1,.2,0,.2.2,0,0,1,.1.18V17.9a.19.19,0,0,1-.1.17l-9.91,5.72A.19.19,0,0,1,13.49,23.82Zm.2-11.53v11l9.51-5.49v-11Z"></path>
      <polygon class="cls-4" points="3.57 17.9 3.57 6.45 13.49 12.17 13.49 23.62 3.57 17.9"></polygon>
      <path class="cls-2" d="M13.49,23.82a.17.17,0,0,1-.1,0L3.47,18.07a.21.21,0,0,1-.1-.17V6.45a.22.22,0,0,1,.1-.18.23.23,0,0,1,.2,0L13.59,12a.19.19,0,0,1,.1.17V23.62a.21.21,0,0,1-.2.2Zm-9.72-6,9.52,5.49v-11L3.77,6.79Z"></path>
      <path class="cls-2" d="M2.63,5.2a.19.19,0,0,1-.18-.11l-.21-.42a.2.2,0,1,1,.36-.18l.21.42a.2.2,0,0,1-.09.27ZM1.52,3a.21.21,0,0,1-.18-.11L.45,1.09A.2.2,0,0,1,.81.91L1.7,2.7A.2.2,0,0,1,1.61,3Z"></path>
      <path class="cls-2" d="M15.63,28.2a.19.19,0,0,1-.18-.11l-.21-.42a.2.2,0,1,1,.36-.18l.21.42a.2.2,0,0,1-.09.27ZM14.52,26a.21.21,0,0,1-.18-.11l-.89-1.79a.2.2,0,1,1,.36-.18l.89,1.79a.2.2,0,0,1-.09.27Z"></path>
      <path class="cls-2" d="M14.05,11.65a.21.21,0,0,1-.16-.08.2.2,0,0,1,0-.28l1.59-1.22a.2.2,0,1,1,.24.31l-1.58,1.23A.19.19,0,0,1,14.05,11.65Z"></path>
      <path class="cls-2" d="M.63,19.78a.19.19,0,0,1-.17-.1.2.2,0,0,1,.07-.28l1.73-1a.2.2,0,0,1,.27.08.19.19,0,0,1-.07.27l-1.73,1A.19.19,0,0,1,.63,19.78Z"></path>
      <g class="cls-5">
        <polygon class="cls-4" points="0.2 19.52 0.2 0 16.21 9.76 16.21 29.28 0.2 19.52"></polygon>
      </g>
      <path class="cls-2" d="M16.21,29.48a.23.23,0,0,1-.11,0l-.18-.11a.22.22,0,0,1-.07-.28A.19.19,0,0,1,16,29V27.49a.2.2,0,0,1,.4,0v1.79a.21.21,0,0,1-.2.2Zm-1.89-1.16-.11,0-1.7-1.05a.19.19,0,0,1-.07-.27.2.2,0,0,1,.27-.07l1.71,1a.2.2,0,0,1,.07.28A.21.21,0,0,1,14.32,28.32ZM10.9,26.24a.19.19,0,0,1-.1,0l-1.71-1A.21.21,0,0,1,9,24.9a.2.2,0,0,1,.28-.07l1.71,1a.21.21,0,0,1,.06.28A.19.19,0,0,1,10.9,26.24Zm5.31-.55a.2.2,0,0,1-.2-.2v-2a.2.2,0,0,1,.4,0v2A.2.2,0,0,1,16.21,25.69ZM7.49,24.16a.23.23,0,0,1-.11,0l-1.71-1a.2.2,0,0,1-.06-.27.19.19,0,0,1,.27-.07l1.71,1a.19.19,0,0,1,.07.27A.2.2,0,0,1,7.49,24.16ZM4.07,22.08a.19.19,0,0,1-.1,0L2.26,21a.22.22,0,0,1-.07-.28.21.21,0,0,1,.28-.06l1.71,1a.19.19,0,0,1,.06.27A.21.21,0,0,1,4.07,22.08Zm12.14-.39a.2.2,0,0,1-.2-.2v-2a.2.2,0,0,1,.4,0v2A.2.2,0,0,1,16.21,21.69ZM.66,20a.2.2,0,0,1-.11,0L.1,19.69a.21.21,0,0,1-.1-.17v-2a.2.2,0,0,1,.4,0v1.89l.36.21a.22.22,0,0,1,.07.28A.22.22,0,0,1,.66,20Zm15.55-2.31a.2.2,0,0,1-.2-.2v-2a.2.2,0,0,1,.4,0v2A.2.2,0,0,1,16.21,17.69Zm-16-2a.2.2,0,0,1-.2-.2v-2a.2.2,0,0,1,.4,0v2A.2.2,0,0,1,.2,15.72Zm16-2a.2.2,0,0,1-.2-.2v-2a.2.2,0,0,1,.4,0v2A.2.2,0,0,1,16.21,13.69Zm-16-2a.2.2,0,0,1-.2-.2v-2a.2.2,0,0,1,.4,0v2A.2.2,0,0,1,.2,11.72ZM16,9.82a.17.17,0,0,1-.1,0l-1.71-1a.21.21,0,0,1-.07-.28.21.21,0,0,1,.28-.06l1.7,1a.19.19,0,0,1,.07.27A.19.19,0,0,1,16,9.82ZM12.57,7.74a.2.2,0,0,1-.11,0l-1.71-1a.21.21,0,0,1-.06-.28A.2.2,0,0,1,11,6.33l1.71,1a.21.21,0,0,1,.07.27A.22.22,0,0,1,12.57,7.74ZM.2,7.72a.2.2,0,0,1-.2-.2v-2a.2.2,0,0,1,.4,0v2A.2.2,0,0,1,.2,7.72Zm9-2.06a.17.17,0,0,1-.1,0l-1.71-1a.2.2,0,0,1-.07-.28.22.22,0,0,1,.28-.07l1.7,1a.2.2,0,0,1,.07.28A.21.21,0,0,1,9.15,5.66ZM.2,3.72a.2.2,0,0,1-.2-.2v-2a.2.2,0,1,1,.4,0v2A.2.2,0,0,1,.2,3.72Zm5.53-.15a.19.19,0,0,1-.1,0l-1.71-1a.19.19,0,0,1-.06-.27.2.2,0,0,1,.27-.07l1.71,1a.22.22,0,0,1,.07.28A.21.21,0,0,1,5.73,3.57ZM2.32,1.49a.23.23,0,0,1-.11,0L.51.42A.19.19,0,0,1,.44.15.2.2,0,0,1,.72.08l1.7,1a.2.2,0,0,1,.07.28A.2.2,0,0,1,2.32,1.49Z"></path>
    </g>
  </g>
</svg>