<svg xmlns="http://www.w3.org/2000/svg" viewBox="0 0 22.31 26.14">
  <defs>
    <style>.cls-1{fill:#fff;}.cls-2{fill:#292929;}.cls-3{fill:#f2f2f2;}.cls-4{opacity:0.4;}.cls-5{fill:#00559d;}</style>
  </defs>
  <g id="&#x56FE;&#x5C42;_2">
    <g id="&#x56FE;&#x5C42;_1-2">
      <polygon class="cls-1" points="22.05 6.27 11.53 12.35 1.01 6.27 11.53 0.2 22.05 6.27 11.53 12.35 11.53 24.49 22.05 18.42 22.05 6.27"></polygon>
      <path class="cls-2" d="M11.53,24.69a.17.17,0,0,1-.1,0,.19.19,0,0,1-.1-.17v-12L.91,6.45a.22.22,0,0,1-.1-.18.19.19,0,0,1,.1-.17L11.43,0a.18.18,0,0,1,.2,0L22.14,6.1h0a.21.21,0,0,1,.1.17V18.42a.18.18,0,0,1-.11.17L11.63,24.66A.19.19,0,0,1,11.53,24.69Zm.2-12.23V24.14L21.84,18.3V6.62ZM1.41,6.27l10.12,5.84L21.64,6.27,11.53.43Z"></path>
      <polygon class="cls-3" points="11.59 12.35 11.59 24.49 22.11 18.42 22.11 6.27 11.59 12.35"></polygon>
      <path class="cls-2" d="M11.59,24.69a.21.21,0,0,1-.2-.2V12.34a.21.21,0,0,1,.1-.17L22,6.1a.18.18,0,0,1,.2,0,.19.19,0,0,1,.1.17V18.42a.19.19,0,0,1-.1.17L11.69,24.66A.17.17,0,0,1,11.59,24.69Zm.2-12.23V24.14L21.91,18.3V6.62Z"></path>
      <polygon class="cls-1" points="0.11 18.85 0.11 4.28 12.28 11.57 12.28 26.14 0.11 18.85"></polygon>
      <g class="cls-4">
        <polygon class="cls-5" points="0.2 18.82 0.2 4.25 12.37 11.54 12.37 26.11 0.2 18.82"></polygon>
      </g>
      <path class="cls-2" d="M10.9,13.38a.2.2,0,0,1-.16-.07.2.2,0,0,1,0-.28l.67-.58a.19.19,0,0,1,.28,0,.19.19,0,0,1,0,.28l-.67.57A.18.18,0,0,1,10.9,13.38Z"></path>
      <path class="cls-2" d="M11.8,26a.23.23,0,0,1-.11,0l-1.71-1a.2.2,0,0,1,.2-.34l1.72,1a.22.22,0,0,1,.07.28A.22.22,0,0,1,11.8,26Zm.57-1a.2.2,0,0,1-.2-.2v-2a.2.2,0,1,1,.4,0v2A.2.2,0,0,1,12.37,25Zm-4-1.07a.19.19,0,0,1-.1,0l-1.71-1a.19.19,0,0,1-.07-.27.19.19,0,0,1,.27-.07l1.72,1a.21.21,0,0,1,.07.27A.2.2,0,0,1,8.36,23.91ZM4.93,21.86a.19.19,0,0,1-.1,0l-1.72-1A.21.21,0,0,1,3,20.53a.2.2,0,0,1,.28-.07l1.72,1a.21.21,0,0,1,.06.28A.19.19,0,0,1,4.93,21.86ZM12.37,21a.2.2,0,0,1-.2-.2v-2a.2.2,0,0,1,.4,0v2A.2.2,0,0,1,12.37,21ZM1.5,19.8a.19.19,0,0,1-.1,0L.1,19a.19.19,0,0,1-.1-.17v-2a.2.2,0,1,1,.4,0v1.89l1.2.72a.19.19,0,0,1,.07.27A.19.19,0,0,1,1.5,19.8ZM12.37,17a.2.2,0,0,1-.2-.2v-2a.2.2,0,1,1,.4,0v2A.2.2,0,0,1,12.37,17ZM.2,15a.2.2,0,0,1-.2-.2v-2a.2.2,0,1,1,.4,0v2A.2.2,0,0,1,.2,15Zm12.17-2a.2.2,0,0,1-.2-.2V11.65l-.55-.33a.2.2,0,0,1-.07-.28.21.21,0,0,1,.27-.07l.65.39a.21.21,0,0,1,.1.18v1.24A.2.2,0,0,1,12.37,13ZM.2,11a.2.2,0,0,1-.2-.2v-2a.2.2,0,1,1,.4,0v2A.2.2,0,0,1,.2,11Zm9.8-.7a.19.19,0,0,1-.1,0l-1.72-1A.19.19,0,0,1,8.12,9a.19.19,0,0,1,.27-.07l1.72,1a.2.2,0,0,1-.11.37ZM6.57,8.26a.19.19,0,0,1-.1,0l-1.72-1A.2.2,0,1,1,5,6.86l1.71,1a.2.2,0,0,1,.07.28A.19.19,0,0,1,6.57,8.26ZM.2,7a.2.2,0,0,1-.2-.2v-2a.2.2,0,0,1,.4,0v2A.2.2,0,0,1,.2,7Zm2.94-.81a.17.17,0,0,1-.1,0l-1.72-1a.21.21,0,0,1-.07-.27.2.2,0,0,1,.28-.07l1.71,1a.19.19,0,0,1,.07.27A.21.21,0,0,1,3.14,6.21Z"></path>
      <polygon class="cls-5" points="1.84 18.01 1.84 8.3 10.5 13.59 10.5 22.86 1.84 18.01"></polygon>
      <path class="cls-2" d="M10.5,23.06a.17.17,0,0,1-.1,0L1.75,18.19A.21.21,0,0,1,1.64,18V8.3a.2.2,0,0,1,.11-.18.2.2,0,0,1,.2,0l8.65,5.29a.19.19,0,0,1,.1.17v9.27a.21.21,0,0,1-.1.17A.19.19,0,0,1,10.5,23.06ZM2,17.9l8.26,4.61V13.7L2,8.65Z"></path>
      <path class="cls-2" d="M11.81,25.58a.21.21,0,0,1-.18-.11l-.92-1.78a.2.2,0,1,1,.36-.18L12,25.28a.2.2,0,0,1-.09.27A.16.16,0,0,1,11.81,25.58Z"></path>
      <path class="cls-2" d="M1.44,7.47a.2.2,0,0,1-.19-.14L.52,5.23A.19.19,0,0,1,.64,5a.19.19,0,0,1,.25.12l.74,2.1a.21.21,0,0,1-.13.26Z"></path>
      <path class="cls-2" d="M.31,19a.21.21,0,0,1-.19-.12.2.2,0,0,1,.1-.26L1,18.19a.2.2,0,0,1,.17.37l-.81.37Z"></path>
    </g>
  </g>
</svg>