<svg xmlns="http://www.w3.org/2000/svg" viewBox="0 0 40 38.04">
  <defs>
    <style>.cls-1{fill:#e6e6e6;}.cls-2{fill:#999;}</style>
  </defs>
  <g id="&#x56FE;&#x5C42;_2">
    <g id="&#x56FE;&#x5C42;_1-2">
      <polygon class="cls-1" points="10.1 24.3 0.21 14.6 13.83 12.62 20 0.23 26.09 12.57 39.79 14.6 29.93 24.21 32.23 37.86 20.05 31.45 7.77 37.86 10.1 24.3"></polygon>
      <path class="cls-2" d="M20,.45l6,12.16.05.1h.1l13.42,1.95-9.71,9.47-.07.07v.1l2.3,13.37-12-6.31L20,31.32l-.09.05-12,6.31,2.3-13.37v-.1l-.07-.07L.43,14.67l13.42-1.95H14l.05-.1L20,.45M20,0,13.82,12.52,0,14.53l10,9.75L7.64,38,20,31.54,32.36,38,30,24.28l10-9.75-13.82-2L20,0Z"></path>
    </g>
  </g>
</svg>