<svg xmlns="http://www.w3.org/2000/svg" viewBox="0 0 28.4 28.4">
  <defs>
    <style>.cls-1{fill:#fff;}.cls-2{fill:#292929;}.cls-3{fill:#00559d;}</style>
  </defs>
  <g id="&#x56FE;&#x5C42;_2">
    <g id="&#x56FE;&#x5C42;_1-2">
      <circle class="cls-1" cx="14.2" cy="14.2" r="14"></circle>
      <path class="cls-2" d="M14.2,28.4A14.2,14.2,0,1,1,28.4,14.2,14.22,14.22,0,0,1,14.2,28.4Zm0-28A13.8,13.8,0,1,0,28,14.2,13.81,13.81,0,0,0,14.2.4Z"></path>
      <path class="cls-3" d="M23.12,3.41A14,14,0,0,1,12.33,26.33a13.91,13.91,0,0,1-8.92-3.21A14,14,0,1,0,23.12,3.41Z"></path>
      <path class="cls-2" d="M14.2,28.4A14.18,14.18,0,0,1,3.26,23.25.2.2,0,0,1,3.54,23,13.8,13.8,0,0,0,23,3.54a.2.2,0,0,1,.28-.28,14.2,14.2,0,0,1-9,25.14ZM5,24.51A13.81,13.81,0,0,0,24.51,5,14.21,14.21,0,0,1,12.33,26.53,14.31,14.31,0,0,1,5,24.51Z"></path>
    </g>
  </g>
</svg>