<svg xmlns="http://www.w3.org/2000/svg" viewBox="0 0 34.4 18.39">
  <defs>
    <style>.cls-1{fill:#292929;}.cls-2{opacity:0.4;}.cls-3{fill:#00559d;}.cls-4{fill:#fff;}</style>
  </defs>
  <g id="&#x56FE;&#x5C42;_2">
    <g id="&#x56FE;&#x5C42;_1-2">
      <path class="cls-1" d="M16.21,18.39h0c-.68,0-1.36,0-2-.08a.2.2,0,0,1-.18-.22.19.19,0,0,1,.2-.18h0c.66,0,1.33.07,2,.08a.19.19,0,0,1,.2.2A.2.2,0,0,1,16.21,18.39Zm2,0a.21.21,0,0,1-.2-.2.2.2,0,0,1,.2-.2q1,0,2-.09h0a.21.21,0,0,1,.2.19.19.19,0,0,1-.19.21c-.68.05-1.36.08-2,.09Zm-6-.26h0c-.69-.07-1.37-.17-2-.27a.2.2,0,0,1-.16-.23.19.19,0,0,1,.22-.16c.64.1,1.31.19,2,.26a.21.21,0,0,1,.18.22A.2.2,0,0,1,12.19,18.13Zm10.06,0a.2.2,0,0,1-.2-.18.2.2,0,0,1,.17-.22c.68-.08,1.35-.17,2-.27a.2.2,0,0,1,.23.16.2.2,0,0,1-.16.23c-.65.11-1.33.2-2,.28Zm-14-.65h0c-.69-.15-1.35-.32-2-.51a.2.2,0,0,1-.14-.25.19.19,0,0,1,.25-.13c.61.18,1.26.35,1.94.5a.2.2,0,0,1,.15.24A.2.2,0,0,1,8.21,17.48Zm18,0a.2.2,0,0,1-.19-.16.2.2,0,0,1,.15-.24c.67-.15,1.32-.32,1.93-.5a.19.19,0,0,1,.25.13.2.2,0,0,1-.13.25c-.62.19-1.28.36-2,.51ZM4.36,16.31H4.29a13,13,0,0,1-1.83-.91.2.2,0,1,1,.2-.34,13.42,13.42,0,0,0,1.78.88.2.2,0,0,1,.11.26A.2.2,0,0,1,4.36,16.31Zm25.71,0a.21.21,0,0,1-.08-.39A12.3,12.3,0,0,0,31.77,15a.19.19,0,0,1,.27.07.19.19,0,0,1-.06.27,13.56,13.56,0,0,1-1.83.91ZM1,14.17a.19.19,0,0,1-.15-.07A2.93,2.93,0,0,1,0,12.17.2.2,0,0,1,.2,12a.19.19,0,0,1,.2.2,2.63,2.63,0,0,0,.74,1.67.19.19,0,0,1,0,.28A.21.21,0,0,1,1,14.17Zm32.44,0a.18.18,0,0,1-.13-.05.2.2,0,0,1,0-.28A2.53,2.53,0,0,0,34,12.14v-.06a.2.2,0,0,1,.19-.21.19.19,0,0,1,.21.19v.08a2.9,2.9,0,0,1-.82,1.93A.17.17,0,0,1,33.43,14.14ZM1,10.56a.19.19,0,0,1-.13-.05.2.2,0,0,1,0-.28A6.88,6.88,0,0,1,2.4,8.92.19.19,0,0,1,2.67,9a.2.2,0,0,1-.06.27A6.09,6.09,0,0,0,1.1,10.49.23.23,0,0,1,1,10.56Zm32.44-.08a.18.18,0,0,1-.15-.07,6.85,6.85,0,0,0-1.53-1.2.21.21,0,0,1-.07-.28.21.21,0,0,1,.28-.06,6.89,6.89,0,0,1,1.62,1.28.2.2,0,0,1,0,.28A.21.21,0,0,1,33.39,10.48ZM4.3,8.39A.21.21,0,0,1,4.22,8c.59-.24,1.23-.47,1.92-.68a.2.2,0,0,1,.25.14.21.21,0,0,1-.13.25,17.83,17.83,0,0,0-1.88.66ZM30,8.35l-.08,0c-.58-.23-1.21-.45-1.88-.65a.2.2,0,0,1-.14-.25.2.2,0,0,1,.25-.14c.69.21,1.33.43,1.92.67a.2.2,0,0,1,.11.26A.19.19,0,0,1,30,8.35ZM8.15,7.2A.2.2,0,0,1,8,7.05a.21.21,0,0,1,.15-.24c.64-.14,1.31-.27,2-.39a.2.2,0,0,1,.23.17.2.2,0,0,1-.16.23c-.68.11-1.34.24-2,.38Zm18,0h0c-.63-.14-1.29-.27-2-.38A.19.19,0,0,1,24,6.57a.2.2,0,0,1,.23-.16c.68.11,1.35.23,2,.38a.2.2,0,0,1,.15.24A.2.2,0,0,1,26.15,7.18Zm-14-.63a.21.21,0,0,1-.2-.18.2.2,0,0,1,.18-.22c.66-.07,1.34-.13,2-.18a.22.22,0,0,1,.21.19.19.19,0,0,1-.19.21c-.67,0-1.34.11-2,.18Zm10.06,0h0c-.66-.07-1.33-.13-2-.17A.21.21,0,0,1,20,6.15a.2.2,0,0,1,.2-.18h0c.68,0,1.36.1,2,.17a.2.2,0,0,1,.18.22A.2.2,0,0,1,22.18,6.54Zm-6-.25a.21.21,0,0,1-.2-.2.22.22,0,0,1,.2-.21h2a.22.22,0,0,1,.2.21.18.18,0,0,1-.21.19h-1l-1,0Z"></path>
      <g class="cls-2">
        <ellipse class="cls-3" cx="17.2" cy="11.95" rx="17" ry="6.06"></ellipse>
      </g>
      <ellipse class="cls-4" cx="17.2" cy="6.26" rx="17" ry="6.06"></ellipse>
      <path class="cls-1" d="M17.2,12.53C7.56,12.53,0,9.78,0,6.26S7.56,0,17.2,0,34.4,2.75,34.4,6.26,26.85,12.53,17.2,12.53ZM17.2.4C7.94.4.4,3,.4,6.26s7.54,5.87,16.8,5.87S34,9.5,34,6.26,26.46.4,17.2.4Z"></path>
    </g>
  </g>
</svg>