<svg xmlns="http://www.w3.org/2000/svg" viewBox="0 0 24 30.32">
  <defs>
    <style>.cls-1{fill:#fff;}.cls-2{fill:#292929;}.cls-3{fill:#00559d;}</style>
  </defs>
  <g id="&#x56FE;&#x5C42;_2">
    <g id="&#x56FE;&#x5C42;_1-2">
      <polygon class="cls-1" points="23.84 21.3 23.84 15.16 17.92 18.15 17.92 24.14 23.84 21.3"></polygon>
      <path class="cls-2" d="M17.92,24.3l-.08,0a.16.16,0,0,1-.08-.14v-6a.17.17,0,0,1,.09-.14l5.92-3a.14.14,0,0,1,.15,0,.16.16,0,0,1,.08.14V21.3a.16.16,0,0,1-.09.15L18,24.29Zm.16-6.05v5.64l5.6-2.69V15.41Zm5.76,3.05h0Z"></path>
      <polyline class="cls-3" points="17.92 11.99 12 8.99 17.92 5.99 23.84 8.99"></polyline>
      <polygon class="cls-1" points="23.84 15.16 23.84 9.16 17.92 12.16 17.92 18.16 23.84 15.16"></polygon>
      <path class="cls-2" d="M17.92,18.32a.11.11,0,0,1-.08,0,.16.16,0,0,1-.08-.13v-6a.16.16,0,0,1,.09-.14l5.92-3a.14.14,0,0,1,.15,0,.16.16,0,0,1,.08.14v6a.15.15,0,0,1-.09.14L18,18.3Zm.16-6.06V17.9l5.6-2.84V9.41Zm5.76,2.9h0Z"></path>
      <polygon class="cls-1" points="17.92 6.2 17.92 12.2 23.84 9.2 23.84 3.2 17.92 6.2"></polygon>
      <path class="cls-2" d="M17.92,12.36a.11.11,0,0,1-.08,0,.14.14,0,0,1-.08-.13v-6a.17.17,0,0,1,.09-.14l5.92-3a.14.14,0,0,1,.15,0A.14.14,0,0,1,24,3.2v6a.15.15,0,0,1-.09.14l-5.92,3Zm.16-6.06v5.64l5.6-2.84V3.46Z"></path>
      <line class="cls-3" x1="17.92" y1="18.16" x2="17.92" y2="12.16"></line>
      <path class="cls-2" d="M17.92,18.32a.16.16,0,0,1-.16-.16v-6a.16.16,0,1,1,.32,0v6A.16.16,0,0,1,17.92,18.32Z"></path>
      <polygon class="cls-3" points="6.08 18.24 6.08 12.07 12 15.16 12 21.32 6.08 18.24"></polygon>
      <polyline class="cls-3" points="12 20.99 6.08 17.99 12 14.99 17.92 17.99"></polyline>
      <polygon class="cls-3" points="6.08 23.99 6.08 17.99 12 20.99 12 26.99 6.08 23.99"></polygon>
      <line class="cls-3" x1="12" y1="15.16" x2="12" y2="21.16"></line>
      <path class="cls-2" d="M12,21.32a.16.16,0,0,1-.16-.16v-6a.16.16,0,0,1,.32,0v6A.16.16,0,0,1,12,21.32Z"></path>
      <line class="cls-3" x1="6.08" y1="18.16" x2="6.08" y2="12.16"></line>
      <path class="cls-2" d="M6.08,18.32a.16.16,0,0,1-.16-.16v-6a.16.16,0,0,1,.32,0v6A.16.16,0,0,1,6.08,18.32Z"></path>
      <polygon class="cls-3" points="12 9.16 12.11 3.33 17.92 6.24 17.92 12.07 12 9.16"></polygon>
      <line class="cls-3" x1="12" y1="9.59" x2="12" y2="3.23"></line>
      <path class="cls-2" d="M12,9.74a.16.16,0,0,1-.16-.15V3.23a.16.16,0,0,1,.32,0V9.59A.16.16,0,0,1,12,9.74Z"></path>
      <line class="cls-3" x1="17.92" y1="12.5" x2="17.92" y2="6.15"></line>
      <path class="cls-2" d="M17.92,12.66a.16.16,0,0,1-.16-.16V6.15a.16.16,0,1,1,.32,0V12.5A.16.16,0,0,1,17.92,12.66Z"></path>
      <polygon class="cls-1" points="17.92 24.16 17.92 18.16 12 21.16 12 27.16 17.92 24.16"></polygon>
      <path class="cls-2" d="M12,27.32a.11.11,0,0,1-.08,0,.16.16,0,0,1-.08-.13v-6a.16.16,0,0,1,.09-.14l5.92-3A.14.14,0,0,1,18,18a.16.16,0,0,1,.08.14v6a.15.15,0,0,1-.09.14l-5.92,3Zm.16-6.07V26.9l5.6-2.84V18.41Zm5.76,2.91Z"></path>
      <polygon class="cls-3" points="12 21.16 6.08 24.16 0.16 21.16 6.08 18.16 12 21.16 6.08 24.16 6.08 30.16 12 27.16 12 21.16"></polygon>
      <path class="cls-2" d="M6.08,30.32a.11.11,0,0,1-.08,0,.16.16,0,0,1-.08-.13v-5.9l-5.83-3A.15.15,0,0,1,0,21.16.14.14,0,0,1,.09,21L6,18a.12.12,0,0,1,.14,0l5.92,3h0a.15.15,0,0,1,.09.13h0v6a.17.17,0,0,1-.09.14l-5.92,3Zm.16-6.06V29.9l5.6-2.84V21.41ZM.51,21.16,6.08,24l5.57-2.82L6.08,18.33Z"></path>
      <polygon class="cls-3" points="0.16 27.16 0.16 21.16 6.08 24.16 6.08 30.16 0.16 27.16"></polygon>
      <path class="cls-2" d="M6.08,30.32,6,30.3l-5.92-3A.15.15,0,0,1,0,27.16v-6A.16.16,0,0,1,.08,21a.14.14,0,0,1,.15,0l5.92,3a.16.16,0,0,1,.09.14v6a.16.16,0,0,1-.08.13A.11.11,0,0,1,6.08,30.32ZM.32,27.06l5.6,2.84V24.26L.32,21.41Z"></path>
      <polygon class="cls-1" points="6.12 24.16 6.12 30.16 12.04 27.16 12.04 21.16 6.12 24.16"></polygon>
      <path class="cls-2" d="M6.12,30.32a.16.16,0,0,1-.09,0A.17.17,0,0,1,6,30.16v-6A.15.15,0,0,1,6,24L12,21a.14.14,0,0,1,.15,0,.16.16,0,0,1,.08.14v6a.17.17,0,0,1-.09.14l-5.92,3Zm.15-6.06V29.9l5.61-2.84V21.41Z"></path>
      <polygon class="cls-1" points="12 15.2 12 21.2 17.92 18.2 17.92 12.2 12 15.2"></polygon>
      <path class="cls-2" d="M12,21.36a.11.11,0,0,1-.08,0,.16.16,0,0,1-.08-.13v-6a.17.17,0,0,1,.09-.14l5.92-3a.14.14,0,0,1,.15,0,.13.13,0,0,1,.08.13v6a.15.15,0,0,1-.09.14l-5.92,3Zm.16-6.06v5.64l5.6-2.84V12.46Z"></path>
      <polygon class="cls-3" points="12 9.16 17.92 12.16 12 15.16 6.08 12.16 12 9.16"></polygon>
      <path class="cls-2" d="M12,15.32l-.07,0L6,12.3a.15.15,0,0,1-.09-.14A.14.14,0,0,1,6,12l5.92-3a.12.12,0,0,1,.14,0L18,12a.14.14,0,0,1,.09.14.15.15,0,0,1-.09.14l-5.92,3ZM6.43,12.16,12,15l5.57-2.82L12,9.33Z"></path>
      <polygon class="cls-3" points="17.92 0.16 23.84 3.16 17.92 6.16 12 3.16 17.92 0.16"></polygon>
      <path class="cls-2" d="M17.92,6.32l-.07,0-5.92-3a.17.17,0,0,1-.09-.14A.16.16,0,0,1,11.93,3l5.92-3A.12.12,0,0,1,18,0l5.92,3a.14.14,0,0,1,.09.14.15.15,0,0,1-.09.14L18,6.3ZM12.35,3.16,17.92,6l5.57-2.82L17.92.33Z"></path>
    </g>
  </g>
</svg>