<svg xmlns="http://www.w3.org/2000/svg" viewBox="0 0 22.4 31.94">
  <defs>
    <style>.cls-1{opacity:0.4;}.cls-2{fill:#00559d;}.cls-3{fill:#292929;}</style>
  </defs>
  <g id="&#x56FE;&#x5C42;_2">
    <g id="&#x56FE;&#x5C42;_1-2">
      <g class="cls-1">
        <polyline class="cls-2" points="11.17 16.2 0.67 10.14 11.17 4.07 21.67 10.14"></polyline>
        <polygon class="cls-2" points="21.67 22.26 21.67 10.14 11.17 16.2 11.17 28.32 21.67 22.26"></polygon>
        <polygon class="cls-2" points="0.67 22.26 0.67 10.14 11.17 16.2 11.17 28.32 0.67 22.26"></polygon>
      </g>
      <path class="cls-3" d="M1.06,25.92a.18.18,0,0,1-.1,0L.1,25.39A.2.2,0,0,1,0,25.11.21.21,0,0,1,.3,25l.86.51a.2.2,0,0,1,.07.28A.19.19,0,0,1,1.06,25.92Z"></path>
      <path class="cls-3" d="M8.48,30.33a.19.19,0,0,1-.1,0L6.53,29.2a.2.2,0,0,1,.2-.34L8.59,30a.21.21,0,0,1,.07.27A.2.2,0,0,1,8.48,30.33Zm-3.71-2.2a.19.19,0,0,1-.1,0L2.81,27A.2.2,0,1,1,3,26.65l1.85,1.11a.19.19,0,0,1,.07.27A.19.19,0,0,1,4.77,28.13Z"></path>
      <path class="cls-3" d="M11.2,31.94a.16.16,0,0,1-.1,0l-.86-.51a.2.2,0,0,1-.07-.28.2.2,0,0,1,.27-.07l.86.51a.2.2,0,0,1,.07.28A.2.2,0,0,1,11.2,31.94Z"></path>
      <path class="cls-3" d="M21.34,25.92a.2.2,0,0,1-.17-.09.2.2,0,0,1,.07-.28L22.1,25a.2.2,0,0,1,.27.07.2.2,0,0,1-.07.28l-.86.51A.18.18,0,0,1,21.34,25.92Z"></path>
      <path class="cls-3" d="M13.92,30.33a.2.2,0,0,1-.18-.1.21.21,0,0,1,.07-.27l1.86-1.1a.2.2,0,1,1,.2.34L14,30.3A.19.19,0,0,1,13.92,30.33Zm3.71-2.2a.19.19,0,0,1-.17-.1.19.19,0,0,1,.07-.27l1.85-1.11a.2.2,0,0,1,.21.35l-1.86,1.1A.19.19,0,0,1,17.63,28.13Z"></path>
      <path class="cls-3" d="M11.2,31.94a.2.2,0,0,1-.17-.09.2.2,0,0,1,.07-.28l.86-.51a.2.2,0,0,1,.27.07.2.2,0,0,1-.07.28l-.86.51A.16.16,0,0,1,11.2,31.94Z"></path>
      <path class="cls-3" d="M11.17,28.64l-.1,0a.2.2,0,0,1-.1-.18V27a.2.2,0,0,1,.4,0V28.1l.16-.1a.2.2,0,0,1,.27.07.2.2,0,0,1-.07.28l-.46.27Zm2.19-1.27a.19.19,0,0,1-.17-.1.21.21,0,0,1,.07-.27L15,26a.2.2,0,0,1,.2.35l-1.74,1A.16.16,0,0,1,13.36,27.37Zm3.47-2a.18.18,0,0,1-.17-.1.19.19,0,0,1,.07-.27l1.73-1a.2.2,0,0,1,.27.07.2.2,0,0,1-.07.28l-1.73,1A.18.18,0,0,1,16.83,25.37Zm-5.66-.19A.2.2,0,0,1,11,25V23a.2.2,0,0,1,.4,0v2A.2.2,0,0,1,11.17,25.18Zm9.12-1.81a.19.19,0,0,1-.17-.1.2.2,0,0,1,.07-.27l1.38-.79V22a.2.2,0,1,1,.4,0v.29a.19.19,0,0,1-.1.17l-1.48.86A.16.16,0,0,1,20.29,23.37Zm-9.12-2.19A.2.2,0,0,1,11,21V19a.2.2,0,0,1,.4,0v2A.2.2,0,0,1,11.17,21.18Zm10.6-.95a.2.2,0,0,1-.2-.2V18a.2.2,0,1,1,.4,0v2A.2.2,0,0,1,21.77,20.23Zm-10.6-3.05A.2.2,0,0,1,11,17v-.67l-1.42-.82a.2.2,0,0,1-.08-.27.21.21,0,0,1,.28-.07l1.42.82.11-.07h0l.83-.48a.2.2,0,1,1,.2.34l-1,.55V17A.2.2,0,0,1,11.17,17.18Zm10.6-.95a.2.2,0,0,1-.2-.2V14a.2.2,0,1,1,.4,0v2A.2.2,0,0,1,21.77,16.23Zm-8.66-1a.19.19,0,0,1-.17-.1A.2.2,0,0,1,13,14.9l.83-.48h0l1.73-1a.19.19,0,0,1,.27.07.2.2,0,0,1-.07.27l-.83.48h0l-1.73,1A.19.19,0,0,1,13.11,15.28Zm-5.2-.76-.1,0-1.73-1A.19.19,0,0,1,6,13.22a.2.2,0,0,1,.27-.07l1.73,1a.2.2,0,0,1-.1.37Zm8.66-1.24a.21.21,0,0,1-.17-.1.22.22,0,0,1,.07-.28l.84-.48h0l1.73-1a.19.19,0,0,1,.27.07.19.19,0,0,1-.07.27l-.83.48h0l-1.74,1A.17.17,0,0,1,16.57,13.28ZM4.45,12.52a.19.19,0,0,1-.1,0l-1.73-1a.2.2,0,0,1-.08-.27.21.21,0,0,1,.28-.07l1.73,1a.19.19,0,0,1,.07.27A.18.18,0,0,1,4.45,12.52Zm17.32-.29a.2.2,0,0,1-.2-.2V10.42l-1.43.83a.19.19,0,0,1-.27-.07.2.2,0,0,1,.07-.28l.84-.48h0l.59-.34-.54-.32a.2.2,0,1,1,.2-.34l.84.48,0,0h0a.2.2,0,0,1,.06.15h0V12A.2.2,0,0,1,21.77,12.23ZM1,10.52a.17.17,0,0,1-.1,0l-.43-.24a.21.21,0,0,1-.1-.17.22.22,0,0,1,.1-.18l1.31-.75a.21.21,0,0,1,.28.07A.2.2,0,0,1,2,9.49l-1,.59.13.07a.21.21,0,0,1,.07.27A.19.19,0,0,1,1,10.52Zm18.2-1.73a.19.19,0,0,1-.1,0l-1.73-1a.2.2,0,0,1-.07-.27.19.19,0,0,1,.27-.07l1.73,1a.2.2,0,0,1,.08.27A.22.22,0,0,1,19.19,8.79ZM3.61,8.52a.2.2,0,0,1-.1-.37l1.73-1a.2.2,0,0,1,.27.07.19.19,0,0,1-.07.27l-1.73,1ZM15.73,6.79a.19.19,0,0,1-.1,0l-1.73-1a.2.2,0,1,1,.2-.34l1.73,1a.2.2,0,0,1-.1.37ZM7.07,6.52a.18.18,0,0,1-.17-.1A.19.19,0,0,1,7,6.15l1.73-1A.19.19,0,0,1,9,5.22a.19.19,0,0,1-.07.27l-1.73,1A.19.19,0,0,1,7.07,6.52Zm5.2-1.73a.17.17,0,0,1-.1,0l-1-.57-.54.3a.19.19,0,0,1-.27-.07.2.2,0,0,1,.07-.27l.64-.37a.23.23,0,0,1,.2,0l1.1.64a.2.2,0,0,1,.07.27A.22.22,0,0,1,12.27,4.79Z"></path>
      <path class="cls-3" d="M11.17,28.64l-.1,0L10,28a.2.2,0,0,1-.08-.27.21.21,0,0,1,.28-.08l.8.47v-.39a.2.2,0,1,1,.4,0v.73a.22.22,0,0,1-.1.18ZM8.33,27a.16.16,0,0,1-.09,0L6.5,26a.2.2,0,0,1-.07-.27.2.2,0,0,1,.27-.08l1.73,1a.21.21,0,0,1,.08.28A.22.22,0,0,1,8.33,27Zm2.84-1.1a.2.2,0,0,1-.2-.2v-2a.2.2,0,1,1,.4,0v2A.2.2,0,0,1,11.17,25.91ZM4.87,25a.19.19,0,0,1-.1,0L3,24A.19.19,0,0,1,3,23.71a.2.2,0,0,1,.27-.08l1.73,1a.2.2,0,0,1,.07.28A.19.19,0,0,1,4.87,25ZM1.41,23a.17.17,0,0,1-.1,0l-.85-.49a.19.19,0,0,1-.1-.17v-2a.2.2,0,0,1,.4,0v1.89l.75.42a.2.2,0,0,1-.1.38Zm9.76-1.1a.2.2,0,0,1-.2-.2v-2a.2.2,0,0,1,.4,0v2A.2.2,0,0,1,11.17,21.91ZM.56,18.52a.2.2,0,0,1-.2-.2v-2a.2.2,0,0,1,.4,0v2A.2.2,0,0,1,.56,18.52Zm10.61-.61a.2.2,0,0,1-.2-.2v-1.4l-.32-.18a.2.2,0,1,1,.19-.35l.43.25a.19.19,0,0,1,.1.17v1.51A.2.2,0,0,1,11.17,17.91ZM9,15.16a.19.19,0,0,1-.1,0l-1.73-1a.2.2,0,0,1,.2-.35l1.73,1a.21.21,0,0,1,.08.28A.22.22,0,0,1,9,15.16ZM.56,14.52a.2.2,0,0,1-.2-.2v-2a.2.2,0,1,1,.4,0v2A.2.2,0,0,1,.56,14.52Zm5-1.36a.17.17,0,0,1-.1,0l-1.73-1a.2.2,0,0,1-.08-.27.21.21,0,0,1,.28-.08l1.73,1a.2.2,0,0,1-.1.38Zm-3.47-2-.09,0L.74,10.41a.19.19,0,0,1-.18.11.2.2,0,0,1-.2-.2v-.24a.22.22,0,0,1,.1-.18.23.23,0,0,1,.2,0l1.52.88a.21.21,0,0,1,.08.28A.22.22,0,0,1,2.08,11.16Z"></path>
      <path class="cls-2" d="M15.61.74l.09,5.51-1.21,0a.12.12,0,0,0-.1.18l2,3.17a.11.11,0,0,0,.2,0l1.87-3.23a.12.12,0,0,0-.1-.18l-1.22,0L17,.72A.52.52,0,0,0,16.5.2h-.37A.52.52,0,0,0,15.61.74Z"></path>
      <path class="cls-3" d="M16.47,9.88a.33.33,0,0,1-.27-.15l-2-3.17a.32.32,0,0,1,.27-.49l1,0L15.41.74a.71.71,0,0,1,.21-.51A.69.69,0,0,1,16.13,0h.38a.7.7,0,0,1,.5.2.72.72,0,0,1,.22.51L17.32,6l1,0h0a.3.3,0,0,1,.27.16.31.31,0,0,1,0,.32L16.74,9.72a.29.29,0,0,1-.27.16Zm-.07-.36Zm-1.76-3L16.47,9.4l1.73-3-1.07,0h0A.16.16,0,0,1,17,6.37a.19.19,0,0,1-.07-.14L16.83.72a.32.32,0,0,0-.09-.23A.38.38,0,0,0,16.5.4h-.37a.32.32,0,0,0-.32.33h0l.09,5.51a.19.19,0,0,1-.19.2Zm-.14,0Z"></path>
    </g>
  </g>
</svg>