<svg xmlns="http://www.w3.org/2000/svg" viewBox="0 0 19.51 22.4">
  <defs>
    <style>.cls-1{fill:#fff;}.cls-2{opacity:0.4;}.cls-3{fill:#00559d;}.cls-4{fill:#292929;}.cls-5{fill:#f2f2f2;}</style>
  </defs>
  <g id="&#x56FE;&#x5C42;_2">
    <g id="&#x56FE;&#x5C42;_1-2">
      <polygon class="cls-1" points="19.25 5.7 9.73 11.2 0.2 5.7 9.73 0.2 19.25 5.7 9.73 11.2 9.73 22.2 19.25 16.7 19.25 5.7"></polygon>
      <g class="cls-2">
        <polygon class="cls-3" points="19.25 5.7 9.73 11.2 0.2 5.7 9.73 0.2 19.25 5.7 9.73 11.2 9.73 22.2 19.25 16.7 19.25 5.7"></polygon>
      </g>
      <polygon class="cls-1" points="0.2 16.7 0.2 5.7 9.73 11.2 9.73 22.2 0.2 16.7"></polygon>
      <path class="cls-4" d="M9.73,22.4a.17.17,0,0,1-.1,0L.1,16.87A.19.19,0,0,1,0,16.7V5.7a.19.19,0,0,1,.1-.17.18.18,0,0,1,.2,0L9.83,11a.19.19,0,0,1,.1.17v11a.21.21,0,0,1-.2.2ZM.4,16.58l9.13,5.27V11.32L.4,6.05Z"></path>
      <polygon class="cls-5" points="9.79 11.2 9.79 22.2 19.31 16.7 19.31 5.7 9.79 11.2"></polygon>
      <path class="cls-4" d="M9.79,22.4a.17.17,0,0,1-.1,0,.18.18,0,0,1-.11-.17v-11A.18.18,0,0,1,9.69,11l9.52-5.5a.18.18,0,0,1,.2,0,.19.19,0,0,1,.1.17v11a.19.19,0,0,1-.1.17l-9.53,5.5A.16.16,0,0,1,9.79,22.4ZM10,11.32V21.85l9.12-5.27V6.05Z"></path>
      <path class="cls-4" d="M9.73,11.4a.2.2,0,0,1-.2-.2V9.73a.2.2,0,0,1,.4,0V11.2A.2.2,0,0,1,9.73,11.4Z"></path>
      <polygon class="cls-3" points="1.55 4.95 9.73 0.2 17.9 4.95 9.73 9.69 1.55 4.95"></polygon>
      <path class="cls-4" d="M9.73,22.4a.17.17,0,0,1-.1,0,.18.18,0,0,1-.1-.17V11.32L.1,5.87a.19.19,0,0,1,0-.34L9.63,0a.18.18,0,0,1,.2,0l9.52,5.5a.18.18,0,0,1,.1.17v11a.18.18,0,0,1-.1.17l-9.52,5.5A.19.19,0,0,1,9.73,22.4Zm.2-11.08V21.85l9.12-5.27V6.05ZM.6,5.7,9.73,11,18.85,5.7,9.73.43Z"></path>
      <path class="cls-4" d="M9.73,9.89a.17.17,0,0,1-.1,0L1.45,5.12A.21.21,0,0,1,1.35,5a.21.21,0,0,1,.1-.18L9.63,0a.18.18,0,0,1,.2,0L18,4.77a.19.19,0,0,1,.1.18.19.19,0,0,1-.1.17L9.83,9.86A.19.19,0,0,1,9.73,9.89ZM2,5,9.73,9.46,17.5,5,9.73.43Z"></path>
    </g>
  </g>
</svg>