<svg xmlns="http://www.w3.org/2000/svg" viewBox="0 0 20.4 27.4">
  <defs>
    <style>.cls-1{fill:#fff;}.cls-2{fill:#292929;}.cls-3{fill:#00559d;}</style>
  </defs>
  <g id="&#x56FE;&#x5C42;_2">
    <g id="&#x56FE;&#x5C42;_1-2">
      <path class="cls-1" d="M.2,3.2v21c0,1.66,4.48,3,10,3s10-1.34,10-3V3.2Z"></path>
      <path class="cls-2" d="M10.2,27.4C4.48,27.4,0,26,0,24.2V3.2A.2.2,0,0,1,.2,3h20a.2.2,0,0,1,.2.2v21C20.4,26,15.92,27.4,10.2,27.4ZM.4,3.4V24.2c0,1.35,3.94,2.8,9.8,2.8S20,25.55,20,24.2V3.4Z"></path>
      <ellipse class="cls-3" cx="10.2" cy="3.2" rx="10" ry="3"></ellipse>
      <path class="cls-2" d="M10.2,6.4C4.48,6.4,0,5,0,3.2S4.48,0,10.2,0,20.4,1.41,20.4,3.2,15.92,6.4,10.2,6.4Zm0-6C4.34.4.4,1.85.4,3.2S4.34,6,10.2,6,20,4.55,20,3.2,16.06.4,10.2.4Z"></path>
    </g>
  </g>
</svg>