<svg xmlns="http://www.w3.org/2000/svg" viewBox="0 0 40 40">
  <defs>
    <style>.cls-1{fill:#595757;}</style>
  </defs>
  <g id="&#x56FE;&#x5C42;_2">
    <g id="&#x56FE;&#x5C42;_1-2">
      <path class="cls-1" d="M25,3,39.91,36.2A1,1,0,0,1,39,37.6H24a1,1,0,0,1-1-1V3.4A1,1,0,0,1,25,3Z"></path>
      <path class="cls-1" d="M1,37.6H16a1,1,0,0,0,1-1V3.4A1,1,0,0,0,15,3L.09,36.2A1,1,0,0,0,1,37.6Zm3.07-3,9.9-22v22Z"></path>
      <rect class="cls-1" x="18.5" y="30" width="3" height="4"></rect>
      <rect class="cls-1" x="18.5" y="24" width="3" height="4"></rect>
      <rect class="cls-1" x="18.5" width="3" height="4"></rect>
      <rect class="cls-1" x="18.5" y="6" width="3" height="4"></rect>
      <rect class="cls-1" x="18.5" y="36" width="3" height="4"></rect>
      <rect class="cls-1" x="18.5" y="18" width="3" height="4"></rect>
      <rect class="cls-1" x="18.5" y="12" width="3" height="4"></rect>
    </g>
  </g>
</svg>