<svg xmlns="http://www.w3.org/2000/svg" xmlns:xlink="http://www.w3.org/1999/xlink" viewBox="0 0 34.44 40.13">
  <defs>
    <style>.cls-1{fill:none;}.cls-2{isolation:isolate;}.cls-3{clip-path:url(#clip-path);}.cls-4{fill:#2e2d2d;}.cls-5{fill:#302f2f;}.cls-6{fill:#323131;}.cls-7{fill:#343232;}.cls-8{fill:#353434;}.cls-9{fill:#373636;}.cls-10{fill:#393838;}.cls-11{fill:#3b3939;}.cls-12{fill:#3d3b3b;}.cls-13{fill:#3e3d3d;}.cls-14{fill:#403f3f;}.cls-15{fill:#424040;}.cls-16{fill:#444242;}.cls-17{fill:#454444;}.cls-18{fill:#474646;}.cls-19{fill:#494747;}.cls-20{fill:#4b4949;}.cls-21{fill:#4d4b4b;}.cls-22{fill:#4e4d4d;}.cls-23{fill:#504e4e;}.cls-24{fill:#363535;}.cls-25{fill:#4e4c4c;}.cls-26{clip-path:url(#clip-path-2);}.cls-27{fill:#343333;}.cls-28{fill:#2d2c2c;}.cls-29{fill:#525050;}.cls-30{clip-path:url(#clip-path-3);}.cls-31{fill:#999;}.cls-32{clip-path:url(#clip-path-4);}</style>
    <clipPath id="clip-path">
      <path class="cls-1" d="M20.46,20.56h1.72a3.92,3.92,0,0,0-2.44.87A6.32,6.32,0,0,0,19,30a4.12,4.12,0,0,0,3.2,1.61H20.46A4.12,4.12,0,0,1,17.26,30a6.32,6.32,0,0,1,.76-8.6A3.92,3.92,0,0,1,20.46,20.56Z"></path>
    </clipPath>
    <clipPath id="clip-path-2">
      <path class="cls-1" d="M20.46,31.64h1.72a1,1,0,0,1,1,1.19H21.44A1,1,0,0,0,20.46,31.64Z"></path>
    </clipPath>
    <clipPath id="clip-path-3">
      <path class="cls-1" d="M28.18,11.07H29.9a1,1,0,0,0-.9,1.21H27.28A1,1,0,0,1,28.18,11.07Z"></path>
    </clipPath>
    <clipPath id="clip-path-4">
      <path class="cls-1" d="M28.17,0h1.72a4.4,4.4,0,0,1,3.83,2.56,6.57,6.57,0,0,1,0,6,4.39,4.39,0,0,1-3.82,2.53H28.18A4.39,4.39,0,0,0,32,8.54a6.6,6.6,0,0,0,0-6A4.4,4.4,0,0,0,28.17,0Z"></path>
    </clipPath>
  </defs>
  <g id="&#x56FE;&#x5C42;_2">
    <g id="&#x56FE;&#x5C42;_1-2">
      <g class="cls-2">
        <g class="cls-3">
          <g class="cls-2">
            <path class="cls-4" d="M20.46,20.56h1.72a3.92,3.92,0,0,0-2.44.87l-.15.12H17.87l.15-.12a3.92,3.92,0,0,1,2.44-.87" transform="translate(0 0)"></path>
            <path class="cls-5" d="M17.87,21.55h1.72a4.08,4.08,0,0,0-.36.36H17.5a4.17,4.17,0,0,1,.37-.36" transform="translate(0 0)"></path>
            <path class="cls-6" d="M17.5,21.91h1.73a2.52,2.52,0,0,0-.27.3H17.24a3.73,3.73,0,0,1,.26-.3" transform="translate(0 0)"></path>
            <path class="cls-7" d="M17.24,22.21H19a3.15,3.15,0,0,0-.22.29H17a3.15,3.15,0,0,1,.22-.29" transform="translate(0 0)"></path>
            <path class="cls-8" d="M17,22.5h1.72a2.33,2.33,0,0,0-.17.26H16.85A2.33,2.33,0,0,1,17,22.5" transform="translate(0 0)"></path>
            <path class="cls-9" d="M16.85,22.76h1.72a1.35,1.35,0,0,0-.15.26H16.7a1.35,1.35,0,0,1,.15-.26" transform="translate(0 0)"></path>
            <path class="cls-10" d="M16.7,23h1.72a2.15,2.15,0,0,0-.14.26H16.56A2.15,2.15,0,0,1,16.7,23" transform="translate(0 0)"></path>
            <path class="cls-11" d="M16.56,23.28h1.72a2.72,2.72,0,0,0-.11.25H16.44l.12-.25" transform="translate(0 0)"></path>
            <path class="cls-12" d="M16.44,23.53h1.73c0,.09-.08.17-.11.26H16.34c0-.09.07-.17.1-.26" transform="translate(0 0)"></path>
            <path class="cls-13" d="M16.34,23.79h1.72l-.09.26H16.25l.09-.26" transform="translate(0 0)"></path>
            <path class="cls-14" d="M16.25,24.05H18a2.76,2.76,0,0,0-.08.27H16.17a2.76,2.76,0,0,1,.08-.27" transform="translate(0 0)"></path>
            <path class="cls-15" d="M16.17,24.32h1.72a2.86,2.86,0,0,0-.07.28H16.1a2.86,2.86,0,0,1,.07-.28" transform="translate(0 0)"></path>
            <path class="cls-16" d="M16.1,24.6h1.72a1.67,1.67,0,0,0-.06.29H16c0-.09,0-.19.07-.29" transform="translate(0 0)"></path>
            <path class="cls-17" d="M16,24.89h1.73c0,.11,0,.21-.05.31H16c0-.1,0-.2,0-.31" transform="translate(0 0)"></path>
            <path class="cls-18" d="M16,25.2h1.72c0,.11,0,.22,0,.33H16c0-.11,0-.22,0-.33" transform="translate(0 0)"></path>
            <path class="cls-19" d="M16,25.53h1.72c0,.12,0,.24,0,.37H15.93c0-.13,0-.25,0-.37" transform="translate(0 0)"></path>
            <path class="cls-20" d="M15.93,25.9h1.72a2.8,2.8,0,0,0,0,.41H15.93a2.8,2.8,0,0,1,0-.41" transform="translate(0 0)"></path>
            <path class="cls-21" d="M15.93,26.31h1.72a4.19,4.19,0,0,0,0,.5H16a4.19,4.19,0,0,1,0-.5" transform="translate(0 0)"></path>
            <path class="cls-22" d="M16,26.81h1.72c0,.25.07.5.12.74H16.08c0-.24-.09-.49-.12-.74" transform="translate(0 0)"></path>
            <path class="cls-23" d="M16.08,27.55H17.8a6,6,0,0,0,.44,1.29H16.51a6.51,6.51,0,0,1-.43-1.29" transform="translate(0 0)"></path>
            <path class="cls-22" d="M16.51,28.84h1.73a5.07,5.07,0,0,0,.32.61H16.84c-.12-.2-.23-.4-.33-.61" transform="translate(0 0)"></path>
            <path class="cls-21" d="M16.84,29.45h1.72c.09.13.17.26.27.38H17.11c-.1-.12-.18-.25-.27-.38" transform="translate(0 0)"></path>
            <path class="cls-20" d="M17.11,29.83h1.72L19,30a.52.52,0,0,0,.1.11H17.36a.52.52,0,0,1-.1-.11l-.15-.2" transform="translate(0 0)"></path>
            <path class="cls-19" d="M17.36,30.14h1.72a1.7,1.7,0,0,0,.22.24H17.58a1.7,1.7,0,0,1-.22-.24" transform="translate(0 0)"></path>
            <path class="cls-18" d="M17.58,30.38H19.3l.21.21H17.79l-.21-.21" transform="translate(0 0)"></path>
            <path class="cls-17" d="M17.79,30.59h1.72l.21.17H18l-.21-.17" transform="translate(0 0)"></path>
            <path class="cls-16" d="M18,30.76h1.72l.21.15H18.21L18,30.76" transform="translate(0 0)"></path>
            <path class="cls-15" d="M18.21,30.91h1.72l.21.14H18.41l-.2-.14" transform="translate(0 0)"></path>
            <path class="cls-14" d="M18.41,31.05h1.73l.21.12H18.63l-.22-.12" transform="translate(0 0)"></path>
            <path class="cls-13" d="M18.63,31.17h1.72l.21.11H18.84l-.21-.11" transform="translate(0 0)"></path>
            <path class="cls-12" d="M18.84,31.28h1.72l.22.09H19.06l-.22-.09" transform="translate(0 0)"></path>
            <path class="cls-11" d="M19.06,31.37h1.72l.23.09H19.29l-.23-.09" transform="translate(0 0)"></path>
            <path class="cls-10" d="M19.29,31.46H21l.25.07H19.54l-.25-.07" transform="translate(0 0)"></path>
            <path class="cls-9" d="M19.54,31.53h1.72l.25,0H19.79l-.25,0" transform="translate(0 0)"></path>
            <path class="cls-8" d="M19.79,31.58h1.72l.28,0H20.07l-.28,0" transform="translate(0 0)"></path>
            <path class="cls-7" d="M20.07,31.62h1.72l.32,0H20.38l-.31,0" transform="translate(0 0)"></path>
            <path class="cls-6" d="M20.38,31.64h0" transform="translate(0 0)"></path>
          </g>
        </g>
      </g>
      <polygon class="cls-23" points="16.05 0.94 17.77 0.94 22.37 6.55 20.65 6.55 16.05 0.94"></polygon>
      <polygon class="cls-24" points="21.39 33.6 23.11 33.6 17.77 40.13 16.05 40.13 21.39 33.6"></polygon>
      <polygon class="cls-25" points="21.44 32.83 23.16 32.83 23.11 33.6 21.39 33.6 21.44 32.83"></polygon>
      <g class="cls-2">
        <g class="cls-26">
          <g class="cls-2">
            <path class="cls-6" d="M20.46,31.64h0" transform="translate(0 0)"></path>
            <path class="cls-7" d="M20.48,31.64h0" transform="translate(0 0)"></path>
            <path class="cls-8" d="M20.56,31.64h0" transform="translate(0 0)"></path>
            <path class="cls-9" d="M20.63,31.65h1.73l.06,0H20.7l-.07,0" transform="translate(0 0)"></path>
            <path class="cls-10" d="M20.7,31.67h0" transform="translate(0 0)"></path>
            <path class="cls-11" d="M20.75,31.68h1.72l.06,0H20.81l-.06,0" transform="translate(0 0)"></path>
            <path class="cls-12" d="M20.81,31.7h1.72l0,0H20.86l-.05,0" transform="translate(0 0)"></path>
            <path class="cls-13" d="M20.86,31.72h1.72l0,0H20.9l0,0" transform="translate(0 0)"></path>
            <path class="cls-14" d="M20.9,31.75h1.72l.05,0H21l-.05,0" transform="translate(0 0)"></path>
            <path class="cls-15" d="M21,31.77h1.72l0,0H21l0,0" transform="translate(0 0)"></path>
            <path class="cls-16" d="M21,31.8h1.72l.05,0H21l-.05,0" transform="translate(0 0)"></path>
            <path class="cls-17" d="M21,31.83h1.72a.08.08,0,0,0,0,0H21.08a.08.08,0,0,1,0,0" transform="translate(0 0)"></path>
            <path class="cls-18" d="M21.08,31.87H22.8l0,0H21.12l0,0" transform="translate(0 0)"></path>
            <path class="cls-19" d="M21.12,31.91h1.72l.05.05H21.16l0-.05" transform="translate(0 0)"></path>
            <path class="cls-20" d="M21.16,32h1.73l0,.06H21.21L21.16,32" transform="translate(0 0)"></path>
            <path class="cls-21" d="M21.21,32h1.72a.18.18,0,0,1,.05.07H21.26a.18.18,0,0,0-.05-.07" transform="translate(0 0)"></path>
            <path class="cls-22" d="M21.26,32.09H23a.75.75,0,0,1,.07.12H21.33a.75.75,0,0,0-.07-.12" transform="translate(0 0)"></path>
            <path class="cls-23" d="M21.33,32.21h1.72a1.83,1.83,0,0,1,.08.25H21.41a1.83,1.83,0,0,0-.08-.25" transform="translate(0 0)"></path>
            <path class="cls-22" d="M21.41,32.46h1.72a.77.77,0,0,1,0,.15H21.43a.77.77,0,0,0,0-.15" transform="translate(0 0)"></path>
            <path class="cls-21" d="M21.43,32.61h1.72a.31.31,0,0,1,0,.1H21.44a.31.31,0,0,0,0-.1" transform="translate(0 0)"></path>
            <path class="cls-20" d="M21.44,32.71h1.72v.08H21.44v-.08" transform="translate(0 0)"></path>
            <path class="cls-19" d="M21.44,32.79h1.72v0H21.44v0" transform="translate(0 0)"></path>
          </g>
        </g>
      </g>
      <polygon class="cls-27" points="20.65 6.55 22.37 6.55 24.39 6.73 22.67 6.73 20.65 6.55"></polygon>
      <polygon class="cls-28" points="26.7 27.12 28.42 27.12 27.71 27.2 25.99 27.2 26.7 27.12"></polygon>
      <polygon class="cls-29" points="27.28 12.28 29 12.28 29.2 14.88 27.48 14.88 27.28 12.28"></polygon>
      <g class="cls-2">
        <g class="cls-30">
          <g class="cls-2">
            <path class="cls-4" d="M28.18,11.07H29.9a.8.8,0,0,0-.52.2H27.66a.8.8,0,0,1,.52-.2" transform="translate(0 0)"></path>
            <path class="cls-5" d="M27.66,11.27h1.72l-.07.07H27.59a.46.46,0,0,1,.07-.07" transform="translate(0 0)"></path>
            <path class="cls-6" d="M27.59,11.34h1.72l0,.06H27.54l.05-.06" transform="translate(0 0)"></path>
            <path class="cls-7" d="M27.54,11.4h1.72a.1.1,0,0,0,0,0H27.5a.1.1,0,0,1,0,0" transform="translate(0 0)"></path>
            <path class="cls-8" d="M27.5,11.45h1.72l0,.05H27.46l0-.05" transform="translate(0 0)"></path>
            <path class="cls-9" d="M27.46,11.5h1.72l0,.06H27.43l0-.06" transform="translate(0 0)"></path>
            <path class="cls-10" d="M27.43,11.56h1.72l0,0H27.4l0,0" transform="translate(0 0)"></path>
            <path class="cls-11" d="M27.4,11.61h1.72l0,.05H27.38l0-.05" transform="translate(0 0)"></path>
            <path class="cls-12" d="M27.38,11.66H29.1l0,.05H27.36l0-.05" transform="translate(0 0)"></path>
            <path class="cls-13" d="M27.36,11.71h1.72s0,0,0,0H27.34s0,0,0,0" transform="translate(0 0)"></path>
            <path class="cls-14" d="M27.34,11.76h1.72s0,0,0,.06H27.32s0,0,0-.06" transform="translate(0 0)"></path>
            <path class="cls-15" d="M27.32,11.82H29s0,0,0,.06H27.31s0,0,0-.06" transform="translate(0 0)"></path>
            <path class="cls-16" d="M27.31,11.88H29s0,0,0,.06H27.3a.13.13,0,0,1,0-.06" transform="translate(0 0)"></path>
            <path class="cls-17" d="M27.3,11.94H29A.13.13,0,0,0,29,12H27.29a.13.13,0,0,1,0-.06" transform="translate(0 0)"></path>
            <path class="cls-18" d="M27.29,12H29a.15.15,0,0,0,0,.07H27.28a.15.15,0,0,1,0-.07" transform="translate(0 0)"></path>
            <path class="cls-19" d="M27.28,12.07H29v.07H27.28v-.07" transform="translate(0 0)"></path>
            <path class="cls-20" d="M27.28,12.14H29a.11.11,0,0,0,0,.08H27.28a.11.11,0,0,1,0-.08" transform="translate(0 0)"></path>
            <path class="cls-21" d="M27.28,12.22H29v.06H27.28v-.06" transform="translate(0 0)"></path>
          </g>
        </g>
      </g>
      <polygon class="cls-23" points="27.48 14.88 29.2 14.88 33.82 20.53 32.1 20.53 27.48 14.88"></polygon>
      <polygon class="cls-24" points="32.1 20.53 33.82 20.53 28.42 27.12 26.7 27.12 32.1 20.53"></polygon>
      <path class="cls-31" d="M28.17,0A4.4,4.4,0,0,1,32,2.56a6.6,6.6,0,0,1,0,6,4.39,4.39,0,0,1-3.82,2.53,1,1,0,0,0-.9,1.21l.2,2.6,4.62,5.65-5.4,6.59L26,27.2a1,1,0,0,1-1-1.07,5.9,5.9,0,0,0-2.07-4.69,3.87,3.87,0,0,0-4.9,0,6.32,6.32,0,0,0-.76,8.6,4.12,4.12,0,0,0,3.2,1.61,1,1,0,0,1,1,1.19l-.05.77-5.34,6.53L0,20.53,16.05.94l4.6,5.61,2,.18a1,1,0,0,0,1-1.09,6.22,6.22,0,0,1,1.32-4A4.16,4.16,0,0,1,28.17,0Z" transform="translate(0 0)"></path>
      <g class="cls-2">
        <g class="cls-32">
          <g class="cls-2">
            <path class="cls-6" d="M28.17,0h0" transform="translate(0 0)"></path>
            <path class="cls-7" d="M28.25,0H30l.3,0H28.55l-.3,0" transform="translate(0 0)"></path>
            <path class="cls-8" d="M28.55,0h1.72l.28,0H28.83l-.28,0" transform="translate(0 0)"></path>
            <path class="cls-9" d="M28.83.06h1.72l.26.05H29.09l-.26,0" transform="translate(0 0)"></path>
            <path class="cls-10" d="M29.09.11h1.72l.24.07H29.33L29.09.11" transform="translate(0 0)"></path>
            <path class="cls-11" d="M29.33.18h1.72l.23.09H29.56L29.33.18" transform="translate(0 0)"></path>
            <path class="cls-12" d="M29.56.27h1.72a1.45,1.45,0,0,1,.22.09H29.78L29.56.27" transform="translate(0 0)"></path>
            <path class="cls-13" d="M29.78.36H31.5l.22.11H30L29.78.36" transform="translate(0 0)"></path>
            <path class="cls-14" d="M30,.47h1.72l.21.12H30.21L30,.47" transform="translate(0 0)"></path>
            <path class="cls-15" d="M30.21.59h1.72l.21.14H30.42L30.21.59" transform="translate(0 0)"></path>
            <path class="cls-16" d="M30.42.73h1.72l.21.15H30.63L30.42.73" transform="translate(0 0)"></path>
            <path class="cls-17" d="M30.63.88h1.72l.21.18H30.84L30.63.88" transform="translate(0 0)"></path>
            <path class="cls-18" d="M30.84,1.06h1.72l.21.2H31.05l-.21-.2" transform="translate(0 0)"></path>
            <path class="cls-19" d="M31.05,1.26h1.72L33,1.5H31.27l-.22-.24" transform="translate(0 0)"></path>
            <path class="cls-20" d="M31.27,1.5H33a1.76,1.76,0,0,1,.24.3H31.51q-.12-.17-.24-.3" transform="translate(0 0)"></path>
            <path class="cls-21" d="M31.51,1.8h1.72a4,4,0,0,1,.28.4H31.79a4,4,0,0,0-.28-.4" transform="translate(0 0)"></path>
            <path class="cls-22" d="M31.79,2.2h1.72q.1.17.21.36c.05.1.1.19.14.29H32.14c0-.1-.09-.19-.14-.29s-.14-.25-.21-.36" transform="translate(0 0)"></path>
            <path class="cls-23" d="M32.14,2.85h1.72a5.49,5.49,0,0,1,.42,1.26H32.56a5.49,5.49,0,0,0-.42-1.26" transform="translate(0 0)"></path>
            <path class="cls-22" d="M32.56,4.11h1.72a4.57,4.57,0,0,1,.12.74H32.68a4.57,4.57,0,0,0-.12-.74" transform="translate(0 0)"></path>
            <path class="cls-21" d="M32.68,4.85H34.4c0,.17,0,.33,0,.5H32.71a4.19,4.19,0,0,0,0-.5" transform="translate(0 0)"></path>
            <path class="cls-20" d="M32.71,5.35h1.73c0,.13,0,.27,0,.41H32.71a2.8,2.8,0,0,0,0-.41" transform="translate(0 0)"></path>
            <path class="cls-19" d="M32.71,5.76h1.72c0,.12,0,.24,0,.36H32.69c0-.12,0-.24,0-.36" transform="translate(0 0)"></path>
            <path class="cls-18" d="M32.69,6.12h1.72l0,.33H32.66l0-.33" transform="translate(0 0)"></path>
            <path class="cls-17" d="M32.66,6.45h1.72c0,.11,0,.21-.05.31H32.61c0-.1,0-.2,0-.31" transform="translate(0 0)"></path>
            <path class="cls-16" d="M32.61,6.76h1.72l-.06.29H32.55l.06-.29" transform="translate(0 0)"></path>
            <path class="cls-15" d="M32.55,7.05h1.72c0,.09-.05.19-.07.28H32.48c0-.09.05-.19.07-.28" transform="translate(0 0)"></path>
            <path class="cls-14" d="M32.48,7.33H34.2c0,.09-.05.18-.08.26H32.4c0-.08.05-.17.08-.26" transform="translate(0 0)"></path>
            <path class="cls-13" d="M32.4,7.59h1.72L34,7.85H32.31l.09-.26" transform="translate(0 0)"></path>
            <path class="cls-12" d="M32.31,7.85H34l-.1.25H32.2c0-.08.07-.16.11-.25" transform="translate(0 0)"></path>
            <path class="cls-11" d="M32.2,8.1h1.73l-.12.24H32.09a2.56,2.56,0,0,0,.11-.24" transform="translate(0 0)"></path>
            <path class="cls-10" d="M32.09,8.34h1.72l-.09.2,0,.05H32l0-.05.09-.2" transform="translate(0 0)"></path>
            <path class="cls-9" d="M32,8.59h1.72l-.16.28H31.8L32,8.59" transform="translate(0 0)"></path>
            <path class="cls-8" d="M31.8,8.87h1.73l-.19.28H31.62l.18-.28" transform="translate(0 0)"></path>
            <path class="cls-7" d="M31.62,9.15h1.72l-.21.28H31.41l.21-.28" transform="translate(0 0)"></path>
            <path class="cls-6" d="M31.41,9.43h1.72l-.26.3H31.15l.26-.3" transform="translate(0 0)"></path>
            <path class="cls-5" d="M31.15,9.73h1.72c-.12.12-.23.23-.35.33H30.8c.12-.1.23-.21.35-.33" transform="translate(0 0)"></path>
            <path class="cls-4" d="M30.8,10.06h1.72a4,4,0,0,1-2.62,1H28.18a4,4,0,0,0,2.62-1" transform="translate(0 0)"></path>
          </g>
        </g>
      </g>
    </g>
  </g>
</svg>