<svg xmlns="http://www.w3.org/2000/svg" viewBox="0 0 30.4 30.36">
  <defs>
    <style>.cls-1{fill:#00559d;}.cls-2{fill:#292929;}.cls-3{fill:#fff;}.cls-4{opacity:0.4;}</style>
  </defs>
  <g id="&#x56FE;&#x5C42;_2">
    <g id="&#x56FE;&#x5C42;_1-2">
      <polygon class="cls-1" points="27.31 9.39 15.16 16.32 3.02 9.39 15.16 2.47 27.31 9.39 15.16 16.32 15.16 30.16 27.31 23.24 27.31 9.39"></polygon>
      <path class="cls-2" d="M15.16,30.36a.18.18,0,0,1-.1,0,.21.21,0,0,1-.1-.18V16.43l-12-6.86a.19.19,0,0,1-.1-.17.19.19,0,0,1,.1-.18L15.06,2.3a.18.18,0,0,1,.2,0L27.41,9.22h0a.23.23,0,0,1,.07.07h0a.2.2,0,0,1,0,.11V23.24a.22.22,0,0,1-.1.18L15.26,30.34A.16.16,0,0,1,15.16,30.36Zm.2-13.93V29.82l11.75-6.69V9.74ZM3.42,9.4l11.74,6.69L26.91,9.4,15.16,2.7Z"></path>
      <polygon class="cls-3" points="3.02 23.24 3.02 9.39 15.16 16.32 15.16 30.16 3.02 23.24"></polygon>
      <path class="cls-2" d="M15.16,30.36a.18.18,0,0,1-.1,0L2.92,23.42a.2.2,0,0,1-.1-.18V9.4a.19.19,0,0,1,.1-.18.21.21,0,0,1,.19,0l12.15,6.92a.22.22,0,0,1,.1.18V30.16a.21.21,0,0,1-.1.18A.16.16,0,0,1,15.16,30.36ZM3.22,23.13,15,29.82V16.43L3.22,9.74Z"></path>
      <polygon class="cls-3" points="15.24 16.32 15.24 30.16 27.39 23.24 27.39 9.39 15.24 16.32"></polygon>
      <path class="cls-2" d="M15.24,30.36a.16.16,0,0,1-.1,0,.21.21,0,0,1-.1-.18V16.32a.22.22,0,0,1,.1-.18L27.29,9.22a.23.23,0,0,1,.2,0,.2.2,0,0,1,.09.18V23.24a.2.2,0,0,1-.1.18L15.34,30.34A.18.18,0,0,1,15.24,30.36Zm.2-13.93V29.82l11.74-6.69V9.74Z"></path>
      <g class="cls-4">
        <ellipse class="cls-1" cx="15.2" cy="2.86" rx="2.73" ry="2.69"></ellipse>
      </g>
      <path class="cls-2" d="M15.2,5.75a2.63,2.63,0,0,1-.49,0,.2.2,0,1,1,.06-.4,2.54,2.54,0,0,0,.87,0,.21.21,0,0,1,.24.16.22.22,0,0,1-.17.24A4.38,4.38,0,0,1,15.2,5.75ZM13.85,5.4l-.1,0A3,3,0,0,1,13,4.73a.2.2,0,0,1,0-.28.21.21,0,0,1,.29,0A2.38,2.38,0,0,0,14,5,.21.21,0,0,1,14,5.3.22.22,0,0,1,13.85,5.4Zm2.71,0a.2.2,0,0,1-.1-.37,2.6,2.6,0,0,0,.67-.56.22.22,0,0,1,.29,0,.2.2,0,0,1,0,.28,2.67,2.67,0,0,1-.78.64A.17.17,0,0,1,16.56,5.39ZM12.64,4a.19.19,0,0,1-.18-.13,2.86,2.86,0,0,1-.19-1,.2.2,0,0,1,.2-.2h0a.2.2,0,0,1,.2.2,2.52,2.52,0,0,0,.16.86.19.19,0,0,1-.12.25Zm5.12,0h-.07a.2.2,0,0,1-.11-.26,2.45,2.45,0,0,0,.15-.85.22.22,0,0,1,.2-.22.19.19,0,0,1,.2.19v0a2.8,2.8,0,0,1-.18,1A.21.21,0,0,1,17.76,4ZM12.63,2.15h-.07a.22.22,0,0,1-.12-.26A2.93,2.93,0,0,1,13,1a.2.2,0,1,1,.31.25,2.52,2.52,0,0,0-.44.76A.21.21,0,0,1,12.63,2.15Zm5.12,0A.19.19,0,0,1,17.57,2a2.67,2.67,0,0,0-.45-.74.19.19,0,0,1,0-.28.21.21,0,0,1,.29,0,2.79,2.79,0,0,1,.52.86.2.2,0,0,1-.12.26ZM13.82.73a.19.19,0,0,1-.17-.1.21.21,0,0,1,.07-.27A3,3,0,0,1,14.67,0a.2.2,0,0,1,.23.16.21.21,0,0,1-.16.24,2.68,2.68,0,0,0-.82.29A.17.17,0,0,1,13.82.73Zm2.71,0a.16.16,0,0,1-.09,0A2.47,2.47,0,0,0,15.61.4a.2.2,0,0,1-.16-.23A.2.2,0,0,1,15.68,0a3.25,3.25,0,0,1,.95.33.21.21,0,0,1,.08.28A.22.22,0,0,1,16.53.71Z"></path>
      <g class="cls-4">
        <ellipse class="cls-1" cx="15.2" cy="16.32" rx="2.73" ry="2.69"></ellipse>
      </g>
      <path class="cls-2" d="M15.2,19.21a2.63,2.63,0,0,1-.49,0,.2.2,0,1,1,.06-.4,2.54,2.54,0,0,0,.87,0,.2.2,0,1,1,.07.4A2.92,2.92,0,0,1,15.2,19.21Zm-1.35-.35-.1,0A3.13,3.13,0,0,1,13,18.2a.21.21,0,0,1,.31-.27,2.22,2.22,0,0,0,.67.55.21.21,0,0,1,.08.28A.22.22,0,0,1,13.85,18.86Zm2.71,0a.2.2,0,0,1-.1-.37,2.41,2.41,0,0,0,.67-.56.22.22,0,0,1,.29,0,.2.2,0,0,1,0,.28,2.88,2.88,0,0,1-.78.65Zm-3.92-1.39a.19.19,0,0,1-.18-.13,2.81,2.81,0,0,1-.19-1,.22.22,0,0,1,.2-.21h0a.2.2,0,0,1,.2.2,2.52,2.52,0,0,0,.16.86.19.19,0,0,1-.12.25Zm5.12,0h-.07a.2.2,0,0,1-.11-.26,2.45,2.45,0,0,0,.15-.85.22.22,0,0,1,.2-.22.19.19,0,0,1,.2.19v0a2.8,2.8,0,0,1-.18,1A.21.21,0,0,1,17.76,17.44Zm-5.13-1.83h-.07a.22.22,0,0,1-.12-.26,2.93,2.93,0,0,1,.51-.87.2.2,0,0,1,.28,0,.21.21,0,0,1,0,.29,2.35,2.35,0,0,0-.44.75A.21.21,0,0,1,12.63,15.61Zm5.12,0a.2.2,0,0,1-.18-.12,2.58,2.58,0,0,0-.45-.75.19.19,0,0,1,0-.28.21.21,0,0,1,.29,0,2.79,2.79,0,0,1,.52.86.2.2,0,0,1-.12.26Zm-3.93-1.37a.19.19,0,0,1-.17-.1.21.21,0,0,1,.07-.27,3,3,0,0,1,.95-.35.2.2,0,0,1,.23.16.21.21,0,0,1-.16.24,2.46,2.46,0,0,0-.82.3Zm2.71,0-.09,0a2.71,2.71,0,0,0-.83-.28.2.2,0,0,1-.16-.23.21.21,0,0,1,.23-.17,3.25,3.25,0,0,1,.95.33.21.21,0,0,1,.08.28A.22.22,0,0,1,16.53,14.17Z"></path>
      <g class="cls-4">
        <ellipse class="cls-1" cx="2.93" cy="9.59" rx="2.73" ry="2.69"></ellipse>
      </g>
      <path class="cls-2" d="M2.93,12.48a2.74,2.74,0,0,1-.5,0,.2.2,0,0,1-.16-.23A.2.2,0,0,1,2.5,12a2.54,2.54,0,0,0,.87,0,.2.2,0,0,1,.07.4A4.38,4.38,0,0,1,2.93,12.48Zm-1.35-.35a.19.19,0,0,1-.1,0,2.67,2.67,0,0,1-.78-.64A.2.2,0,0,1,1,11.2a2.42,2.42,0,0,0,.68.55.21.21,0,0,1,.07.28A.19.19,0,0,1,1.58,12.13Zm2.71,0a.22.22,0,0,1-.18-.1.2.2,0,0,1,.08-.27,2.56,2.56,0,0,0,.67-.56.2.2,0,0,1,.28,0,.2.2,0,0,1,0,.28,3,3,0,0,1-.78.64A.19.19,0,0,1,4.29,12.12ZM.37,10.73a.21.21,0,0,1-.19-.13A2.85,2.85,0,0,1,0,9.6a.2.2,0,0,1,.2-.2h0a.2.2,0,0,1,.2.2,2.3,2.3,0,0,0,.16.86.2.2,0,0,1-.12.25Zm5.12,0H5.42a.2.2,0,0,1-.12-.26,2.45,2.45,0,0,0,.15-.85.22.22,0,0,1,.2-.22.19.19,0,0,1,.2.19v0a3,3,0,0,1-.17,1A.21.21,0,0,1,5.49,10.71ZM.36,8.88H.29a.21.21,0,0,1-.12-.26,2.93,2.93,0,0,1,.51-.87A.2.2,0,1,1,1,8a2.33,2.33,0,0,0-.43.75A.21.21,0,0,1,.36,8.88Zm5.12-.05a.21.21,0,0,1-.19-.12A2.21,2.21,0,0,0,4.84,8a.2.2,0,0,1,.3-.26,2.81,2.81,0,0,1,.53.86.21.21,0,0,1-.12.26ZM1.55,7.46a.19.19,0,0,1-.17-.1.2.2,0,0,1,.07-.27,2.94,2.94,0,0,1,1-.35.2.2,0,0,1,.23.16.21.21,0,0,1-.16.24,2.46,2.46,0,0,0-.82.3Zm2.71,0-.1,0a2.57,2.57,0,0,0-.82-.28.2.2,0,0,1-.16-.23.2.2,0,0,1,.23-.17,3.25,3.25,0,0,1,1,.33.21.21,0,0,1,.08.28A.22.22,0,0,1,4.26,7.44Z"></path>
      <g class="cls-4">
        <ellipse class="cls-1" cx="27.47" cy="9.59" rx="2.73" ry="2.69"></ellipse>
      </g>
      <path class="cls-2" d="M27.47,12.48a2.7,2.7,0,0,1-.49,0,.21.21,0,0,1-.17-.23A.21.21,0,0,1,27,12a2.6,2.6,0,0,0,.88,0,.2.2,0,0,1,.23.16.21.21,0,0,1-.16.24A4.55,4.55,0,0,1,27.47,12.48Zm-1.34-.35a.17.17,0,0,1-.1,0,2.67,2.67,0,0,1-.78-.64.19.19,0,0,1,0-.28.2.2,0,0,1,.28,0,2.53,2.53,0,0,0,.67.55.21.21,0,0,1,.08.28A.22.22,0,0,1,26.13,12.13Zm2.7,0a.21.21,0,0,1-.17-.1.2.2,0,0,1,.08-.27,2.56,2.56,0,0,0,.67-.56.2.2,0,1,1,.3.26,2.67,2.67,0,0,1-.78.64A.17.17,0,0,1,28.83,12.12Zm-3.91-1.39a.21.21,0,0,1-.19-.13,2.85,2.85,0,0,1-.18-1,.2.2,0,0,1,.2-.2h0a.2.2,0,0,1,.2.2,2.51,2.51,0,0,0,.15.86.19.19,0,0,1-.11.25Zm5.12,0H30a.2.2,0,0,1-.12-.26A2.45,2.45,0,0,0,30,9.59a.22.22,0,0,1,.2-.22.19.19,0,0,1,.2.19v0a2.8,2.8,0,0,1-.18,1A.19.19,0,0,1,30,10.71ZM24.91,8.88h-.07a.2.2,0,0,1-.12-.26,2.56,2.56,0,0,1,.51-.87.19.19,0,0,1,.28,0,.21.21,0,0,1,0,.29,2.35,2.35,0,0,0-.44.75A.19.19,0,0,1,24.91,8.88ZM30,8.83a.2.2,0,0,1-.18-.12A2.58,2.58,0,0,0,29.39,8a.19.19,0,0,1,0-.28.2.2,0,0,1,.28,0,2.79,2.79,0,0,1,.52.86.2.2,0,0,1-.11.26ZM26.1,7.46a.18.18,0,0,1-.17-.1A.19.19,0,0,1,26,7.09,2.86,2.86,0,0,1,27,6.74a.2.2,0,0,1,.23.16.21.21,0,0,1-.16.24,2.38,2.38,0,0,0-.82.3Zm2.71,0a.19.19,0,0,1-.1,0,2.57,2.57,0,0,0-.82-.28.21.21,0,0,1-.17-.23A.22.22,0,0,1,28,6.73a3.21,3.21,0,0,1,1,.33.21.21,0,0,1,.07.28A.19.19,0,0,1,28.81,7.44Z"></path>
    </g>
  </g>
</svg>