<svg xmlns="http://www.w3.org/2000/svg" viewBox="0 0 23.61 24.3">
  <defs>
    <style>.cls-1{fill:#fff;}.cls-2{fill:#292929;}.cls-3{fill:#00559d;}</style>
  </defs>
  <g id="&#x56FE;&#x5C42;_2">
    <g id="&#x56FE;&#x5C42;_1-2">
      <polygon class="cls-1" points="0.2 24.1 20.29 16.43 6.13 3.94 0.2 24.1"></polygon>
      <path class="cls-2" d="M.2,24.3a.24.24,0,0,1-.14-.05A.22.22,0,0,1,0,24L5.93,3.88a.2.2,0,0,1,.14-.13.22.22,0,0,1,.19,0L20.43,16.28a.22.22,0,0,1,.06.19.18.18,0,0,1-.13.15L.27,24.29Zm6-20L.51,23.77l19.4-7.4Z"></path>
      <ellipse class="cls-3" cx="14.69" cy="8.51" rx="6.72" ry="10" transform="translate(-1.41 13.9) rotate(-48.6)"></ellipse>
      <path class="cls-2" d="M18,17A9.09,9.09,0,0,1,16.83,17a13.1,13.1,0,0,1-6.72-3.25C5.9,10,4.52,4.62,7,1.76s8-2.16,12.23,1.56h0a13,13,0,0,1,4.06,6.25,6,6,0,0,1-1,5.68A5.61,5.61,0,0,1,18,17ZM11.41.39A5.23,5.23,0,0,0,7.34,2c-2.38,2.69-1,7.79,3,11.37a12.54,12.54,0,0,0,6.5,3.15A5.66,5.66,0,0,0,22,15a5.66,5.66,0,0,0,.9-5.32,12.49,12.49,0,0,0-3.94-6h0A12,12,0,0,0,11.41.39Z"></path>
    </g>
  </g>
</svg>