<svg xmlns="http://www.w3.org/2000/svg" viewBox="0 0 40 40">
  <defs>
    <style>.cls-1{fill:#595757;}</style>
  </defs>
  <g id="&#x56FE;&#x5C42;_2">
    <g id="&#x56FE;&#x5C42;_1-2">
      <path class="cls-1" d="M35.5,31a3.93,3.93,0,0,0-.6.06L22.77,7.57A4.44,4.44,0,0,0,24,4.5a4.5,4.5,0,1,0-7.7,3.16L5,31.05A3.87,3.87,0,0,0,4.5,31a4.5,4.5,0,1,0,4.22,6H31.28a4.49,4.49,0,1,0,4.22-6ZM7.7,32.34,19,9A3.87,3.87,0,0,0,19.5,9a3.93,3.93,0,0,0,.6-.06L32.23,32.43A4.5,4.5,0,0,0,31.28,34H8.72A4.37,4.37,0,0,0,7.7,32.34Z"></path>
    </g>
  </g>
</svg>